<?xml version="1.0" encoding="UTF-8"?>
<svg xmlns="http://www.w3.org/2000/svg" xmlns:xlink="http://www.w3.org/1999/xlink" width="87px" height="24px" viewBox="0 0 86 24" version="1.1">
<g id="surface1">
<path style=" stroke:none;fill-rule:nonzero;fill:rgb(11.372549%,63.529412%,70.588235%);fill-opacity:1;" d="M 85.65625 6.996094 C 85.742188 6.996094 85.84375 7.023438 85.910156 7.097656 C 85.972656 7.175781 86.011719 7.261719 85.996094 7.363281 L 85.996094 9.585938 C 85.996094 9.6875 85.972656 9.777344 85.910156 9.851562 C 85.84375 9.917969 85.742188 9.953125 85.65625 9.953125 L 83.804688 9.953125 L 83.804688 18.792969 C 83.804688 18.894531 83.777344 18.984375 83.714844 19.058594 C 83.652344 19.121094 83.550781 19.160156 83.460938 19.160156 L 80.683594 19.160156 C 80.59375 19.160156 80.492188 19.136719 80.429688 19.058594 C 80.367188 18.984375 80.328125 18.894531 80.339844 18.792969 L 80.339844 9.953125 L 78.488281 9.953125 C 78.398438 9.953125 78.296875 9.929688 78.234375 9.851562 C 78.171875 9.777344 78.132812 9.6875 78.144531 9.585938 L 78.144531 7.363281 C 78.144531 7.261719 78.171875 7.175781 78.234375 7.097656 C 78.296875 7.035156 78.398438 6.996094 78.488281 6.996094 L 80.339844 6.996094 L 80.339844 3.886719 C 80.339844 3.785156 80.367188 3.695312 80.429688 3.617188 C 80.492188 3.554688 80.59375 3.515625 80.683594 3.515625 L 83.460938 3.515625 C 83.550781 3.515625 83.652344 3.542969 83.714844 3.617188 C 83.777344 3.695312 83.816406 3.785156 83.804688 3.886719 L 83.804688 6.996094 Z M 85.65625 6.996094 "/>
<path style=" stroke:none;fill-rule:nonzero;fill:rgb(11.372549%,63.529412%,70.588235%);fill-opacity:1;" d="M 77.664062 12.863281 C 77.664062 13.394531 77.613281 13.789062 77.5 14.03125 C 77.386719 14.273438 77.167969 14.375 76.828125 14.375 L 69.953125 14.375 C 70.089844 14.972656 70.445312 15.503906 70.941406 15.859375 C 71.449219 16.191406 72.082031 16.34375 72.871094 16.355469 C 73.238281 16.355469 73.605469 16.304688 73.960938 16.203125 C 74.355469 16.0625 74.734375 15.886719 75.078125 15.644531 C 75.203125 15.515625 75.417969 15.515625 75.546875 15.644531 C 75.558594 15.65625 75.570312 15.683594 75.582031 15.695312 L 76.789062 16.914062 C 76.851562 16.976562 76.878906 17.066406 76.878906 17.15625 C 76.863281 17.269531 76.828125 17.371094 76.738281 17.445312 C 76.191406 18.03125 75.546875 18.488281 74.808594 18.816406 C 74.085938 19.136719 73.300781 19.289062 72.515625 19.273438 C 71.410156 19.289062 70.332031 19.007812 69.382812 18.449219 C 68.480469 17.902344 67.746094 17.128906 67.25 16.203125 C 66.742188 15.238281 66.476562 14.171875 66.488281 13.078125 C 66.476562 11.988281 66.730469 10.921875 67.226562 9.953125 C 67.707031 9.039062 68.429688 8.265625 69.304688 7.734375 C 70.179688 7.175781 71.207031 6.894531 72.246094 6.90625 C 73.25 6.894531 74.226562 7.175781 75.078125 7.71875 C 75.902344 8.253906 76.5625 9.015625 76.980469 9.890625 C 77.449219 10.820312 77.675781 11.835938 77.664062 12.863281 Z M 72.285156 10.003906 C 71.714844 9.992188 71.167969 10.183594 70.738281 10.539062 C 70.308594 10.882812 70.027344 11.378906 69.902344 12.050781 L 74.582031 12.050781 C 74.480469 11.390625 74.214844 10.882812 73.796875 10.539062 C 73.375 10.183594 72.84375 9.992188 72.285156 10.003906 Z M 72.285156 10.003906 "/>
<path style=" stroke:none;fill-rule:nonzero;fill:rgb(11.372549%,63.529412%,70.588235%);fill-opacity:1;" d="M 64.980469 7.175781 C 65.070312 7.175781 65.171875 7.199219 65.234375 7.277344 C 65.296875 7.351562 65.335938 7.441406 65.324219 7.542969 L 65.324219 19.046875 C 65.324219 20.226562 65.019531 21.191406 64.398438 21.929688 C 63.800781 22.664062 63 23.222656 62.101562 23.515625 C 61.1875 23.820312 60.234375 23.984375 59.273438 23.972656 C 58.320312 23.972656 57.371094 23.832031 56.46875 23.527344 C 55.65625 23.289062 54.894531 22.90625 54.222656 22.398438 C 54.136719 22.335938 54.085938 22.234375 54.085938 22.132812 C 54.085938 22.054688 54.097656 21.980469 54.136719 21.917969 L 55.035156 20.203125 C 55.125 20.074219 55.226562 20.011719 55.316406 20.011719 C 55.378906 20.011719 55.441406 20.023438 55.503906 20.0625 C 56.011719 20.378906 56.558594 20.621094 57.128906 20.773438 C 57.738281 20.925781 58.371094 21.003906 59.007812 21.003906 C 59.753906 21.015625 60.503906 20.824219 61.164062 20.46875 C 61.808594 20.125 62.140625 19.542969 62.140625 18.730469 L 62.140625 17.597656 C 61.238281 18.679688 60.136719 19.210938 58.804688 19.210938 C 57.800781 19.222656 56.824219 18.933594 56 18.386719 C 55.164062 17.828125 54.476562 17.054688 54.035156 16.140625 C 53.109375 14.195312 53.109375 11.9375 54.035156 9.980469 C 54.476562 9.066406 55.164062 8.292969 56 7.734375 C 56.824219 7.175781 57.800781 6.894531 58.804688 6.90625 C 60.070312 6.90625 61.148438 7.441406 62.050781 8.496094 L 62.113281 7.542969 C 62.140625 7.300781 62.265625 7.175781 62.457031 7.175781 Z M 59.246094 15.871094 C 59.945312 15.871094 60.617188 15.554688 61.046875 15.007812 C 61.53125 14.460938 61.796875 13.765625 61.796875 13.039062 C 61.808594 12.316406 61.542969 11.617188 61.0625 11.085938 C 60.617188 10.539062 59.957031 10.222656 59.257812 10.234375 C 58.5625 10.222656 57.890625 10.527344 57.433594 11.058594 C 56.9375 11.59375 56.671875 12.304688 56.699219 13.039062 C 56.671875 13.789062 56.925781 14.511719 57.421875 15.074219 C 57.863281 15.59375 58.535156 15.886719 59.246094 15.871094 Z M 59.246094 15.871094 "/>
<path style=" stroke:none;fill-rule:nonzero;fill:rgb(11.372549%,63.529412%,70.588235%);fill-opacity:1;" d="M 52.167969 6.996094 C 52.257812 6.996094 52.359375 7.023438 52.421875 7.097656 C 52.488281 7.175781 52.523438 7.261719 52.511719 7.363281 L 52.511719 9.585938 C 52.511719 9.6875 52.488281 9.777344 52.421875 9.851562 C 52.359375 9.917969 52.257812 9.953125 52.167969 9.953125 L 50.316406 9.953125 L 50.316406 18.792969 C 50.316406 18.894531 50.292969 18.984375 50.230469 19.058594 C 50.164062 19.121094 50.0625 19.160156 49.976562 19.160156 L 47.195312 19.160156 C 47.109375 19.160156 47.007812 19.136719 46.945312 19.058594 C 46.878906 18.984375 46.84375 18.894531 46.855469 18.792969 L 46.855469 9.953125 L 45.003906 9.953125 C 44.914062 9.953125 44.8125 9.929688 44.75 9.851562 C 44.6875 9.777344 44.648438 9.6875 44.660156 9.585938 L 44.660156 7.363281 C 44.660156 7.261719 44.6875 7.175781 44.75 7.097656 C 44.8125 7.035156 44.914062 6.996094 45.003906 6.996094 L 46.855469 6.996094 L 46.855469 3.886719 C 46.855469 3.785156 46.878906 3.695312 46.945312 3.617188 C 47.007812 3.554688 47.109375 3.515625 47.195312 3.515625 L 49.976562 3.515625 C 50.0625 3.515625 50.164062 3.542969 50.230469 3.617188 C 50.292969 3.695312 50.332031 3.785156 50.316406 3.886719 L 50.316406 6.996094 Z M 52.167969 6.996094 "/>
<path style=" stroke:none;fill-rule:nonzero;fill:rgb(11.372549%,63.529412%,70.588235%);fill-opacity:1;" d="M 41.628906 5.992188 C 41.132812 6.007812 40.652344 5.800781 40.308594 5.433594 C 39.953125 5.054688 39.765625 4.558594 39.777344 4.039062 C 39.765625 3.515625 39.953125 3.023438 40.308594 2.640625 C 40.96875 1.917969 42.085938 1.855469 42.820312 2.515625 C 42.871094 2.550781 42.910156 2.601562 42.949219 2.640625 C 43.304688 3.023438 43.492188 3.515625 43.480469 4.039062 C 43.492188 4.558594 43.304688 5.054688 42.949219 5.433594 C 42.605469 5.800781 42.125 6.007812 41.628906 5.992188 Z M 39.890625 7.351562 C 39.890625 7.25 39.917969 7.160156 39.980469 7.085938 C 40.042969 7.023438 40.144531 6.984375 40.234375 6.984375 L 43.023438 6.984375 C 43.113281 6.984375 43.214844 7.007812 43.277344 7.085938 C 43.339844 7.160156 43.378906 7.25 43.367188 7.351562 L 43.367188 18.78125 C 43.367188 18.882812 43.339844 18.96875 43.277344 19.046875 C 43.214844 19.109375 43.113281 19.148438 43.023438 19.148438 L 40.234375 19.148438 C 40.144531 19.148438 40.042969 19.121094 39.980469 19.046875 C 39.917969 18.96875 39.878906 18.882812 39.890625 18.78125 Z M 39.890625 7.351562 "/>
<path style=" stroke:none;fill-rule:nonzero;fill:rgb(11.372549%,63.529412%,70.588235%);fill-opacity:1;" d="M 35.4375 10.03125 C 36.3125 10.285156 37.089844 10.804688 37.660156 11.515625 C 38.292969 12.277344 38.636719 13.242188 38.609375 14.234375 C 38.609375 15.886719 38.101562 17.117188 37.101562 17.941406 C 36.109375 18.753906 34.601562 19.160156 32.558594 19.160156 L 26.863281 19.160156 C 26.777344 19.160156 26.675781 19.136719 26.609375 19.058594 C 26.546875 18.984375 26.507812 18.894531 26.523438 18.792969 L 26.523438 2.425781 C 26.523438 2.324219 26.546875 2.234375 26.609375 2.160156 C 26.675781 2.09375 26.777344 2.058594 26.863281 2.058594 L 32.535156 2.058594 C 33.550781 2.058594 34.425781 2.246094 35.148438 2.640625 C 35.84375 2.996094 36.429688 3.542969 36.808594 4.226562 C 37.203125 4.914062 37.40625 5.6875 37.390625 6.476562 C 37.40625 7.25 37.214844 8.023438 36.808594 8.699219 C 36.453125 9.34375 35.996094 9.777344 35.4375 10.03125 Z M 34.042969 6.972656 C 34.042969 5.929688 33.433594 5.410156 32.21875 5.410156 L 30.113281 5.410156 L 30.113281 8.683594 L 32.21875 8.683594 C 32.789062 8.683594 33.230469 8.546875 33.5625 8.265625 C 33.878906 7.972656 34.042969 7.542969 34.042969 6.972656 Z M 32.699219 15.808594 C 33.410156 15.808594 33.96875 15.644531 34.386719 15.300781 C 34.804688 14.957031 35.007812 14.449219 35.007812 13.765625 C 35.007812 13.089844 34.804688 12.609375 34.386719 12.304688 C 33.96875 11.972656 33.410156 11.808594 32.699219 11.808594 L 30.113281 11.808594 L 30.113281 15.808594 Z M 32.699219 15.808594 "/>
<path style=" stroke:none;fill-rule:nonzero;fill:rgb(11.372549%,63.529412%,70.588235%);fill-opacity:1;" d="M 6.660156 0.53125 C 6.949219 0.203125 7.371094 0.0234375 7.800781 0.0234375 L 10.589844 0.0234375 C 10.820312 0.0390625 11.007812 0.226562 10.996094 0.457031 C 10.996094 0.558594 10.957031 0.648438 10.882812 0.722656 L 5.351562 6.871094 L 8.398438 6.871094 L 11.503906 10.296875 L 5.351562 10.296875 L 11.503906 17.140625 L 7.789062 17.140625 C 7.355469 17.140625 6.9375 16.964844 6.644531 16.632812 L 0.417969 9.675781 C -0.140625 9.054688 -0.140625 8.101562 0.417969 7.480469 Z M 6.660156 0.53125 "/>
<path style=" stroke:none;fill-rule:nonzero;fill:rgb(11.372549%,63.529412%,70.588235%);fill-opacity:1;" d="M 15.246094 23.464844 C 14.953125 23.796875 14.535156 23.972656 14.105469 23.972656 L 11.3125 23.972656 C 11.085938 23.960938 10.894531 23.769531 10.910156 23.542969 C 10.910156 23.441406 10.945312 23.351562 11.023438 23.273438 L 16.539062 17.128906 L 13.496094 17.128906 L 10.386719 13.714844 L 16.539062 13.714844 L 10.386719 6.871094 L 14.105469 6.871094 C 14.535156 6.871094 14.953125 7.058594 15.246094 7.378906 L 21.488281 14.324219 C 22.042969 14.945312 22.042969 15.898438 21.488281 16.519531 Z M 15.246094 23.464844 "/>
</g>
</svg>
