<svg width="71" height="24" viewBox="0 0 71 24" fill="none" xmlns="http://www.w3.org/2000/svg">
<path d="M21.9141 12.1797C21.9141 13.4661 21.6667 14.5417 21.1719 15.4062C20.6823 16.2656 19.9714 16.9141 19.0391 17.3516C18.1068 17.7839 16.9844 18 15.6719 18H12.4375V6.57812H16.0234C17.2214 6.57812 18.2604 6.79167 19.1406 7.21875C20.0208 7.64062 20.7031 8.26823 21.1875 9.10156C21.6719 9.92969 21.9141 10.9557 21.9141 12.1797ZM19.3984 12.2422C19.3984 11.3984 19.2734 10.7057 19.0234 10.1641C18.7786 9.61719 18.4141 9.21354 17.9297 8.95312C17.4505 8.69271 16.8568 8.5625 16.1484 8.5625H14.8594V16H15.8984C17.0807 16 17.9583 15.6849 18.5312 15.0547C19.1094 14.4245 19.3984 13.487 19.3984 12.2422ZM30.8594 18H24.2812V6.57812H30.8594V8.5625H26.7031V11.0703H30.5703V13.0547H26.7031V16H30.8594V18ZM38.0859 18L35.3359 9.03906H35.2656C35.276 9.2526 35.2917 9.57552 35.3125 10.0078C35.3385 10.4349 35.362 10.8906 35.3828 11.375C35.4036 11.8594 35.4141 12.2969 35.4141 12.6875V18H33.25V6.57812H36.5469L39.25 15.3125H39.2969L42.1641 6.57812H45.4609V18H43.2031V12.5938C43.2031 12.2344 43.2083 11.8203 43.2188 11.3516C43.2344 10.8828 43.2526 10.4375 43.2734 10.0156C43.2943 9.58854 43.3099 9.26823 43.3203 9.05469H43.25L40.3047 18H38.0859ZM58.7109 12.2734C58.7109 13.1536 58.6016 13.9557 58.3828 14.6797C58.1641 15.3984 57.8307 16.0182 57.3828 16.5391C56.9401 17.0599 56.3776 17.4609 55.6953 17.7422C55.013 18.0182 54.2057 18.1562 53.2734 18.1562C52.3411 18.1562 51.5339 18.0182 50.8516 17.7422C50.1693 17.4609 49.6042 17.0599 49.1562 16.5391C48.7135 16.0182 48.3828 15.3958 48.1641 14.6719C47.9453 13.9479 47.8359 13.1432 47.8359 12.2578C47.8359 11.0755 48.0286 10.0469 48.4141 9.17188C48.8047 8.29167 49.4036 7.60938 50.2109 7.125C51.0182 6.64062 52.0443 6.39844 53.2891 6.39844C54.5286 6.39844 55.5469 6.64062 56.3438 7.125C57.1458 7.60938 57.7396 8.29167 58.125 9.17188C58.5156 10.0521 58.7109 11.0859 58.7109 12.2734ZM50.375 12.2734C50.375 13.0703 50.474 13.7578 50.6719 14.3359C50.875 14.9089 51.1901 15.3516 51.6172 15.6641C52.0443 15.9714 52.5964 16.125 53.2734 16.125C53.9609 16.125 54.5182 15.9714 54.9453 15.6641C55.3724 15.3516 55.6823 14.9089 55.875 14.3359C56.0729 13.7578 56.1719 13.0703 56.1719 12.2734C56.1719 11.0755 55.9479 10.1328 55.5 9.44531C55.0521 8.75781 54.3151 8.41406 53.2891 8.41406C52.6068 8.41406 52.0495 8.57031 51.6172 8.88281C51.1901 9.1901 50.875 9.63281 50.6719 10.2109C50.474 10.7839 50.375 11.4714 50.375 12.2734Z" fill="#30D5C8"/>
</svg>
