<svg width="356" height="160" viewBox="0 0 356 160" fill="none" xmlns="http://www.w3.org/2000/svg">
<g clip-path="url(#clip0_306_9699)">
<rect width="356" height="160" rx="8" fill="#18D690"/>
<g clip-path="url(#clip1_306_9699)">
<path d="M353.555 40.252C353.53 40.352 353.505 40.4519 353.48 40.5519C349.337 39.8506 345.299 38.1267 340.975 39.4839C340.516 39.4932 340.063 39.5093 339.604 39.5186C338.155 37.9925 336.782 39.5698 335.37 39.6343C334.904 39.2689 334.438 38.9034 333.972 38.538C332.983 38.9695 332.573 40.569 331.073 39.9787C330.846 40.1637 330.611 40.3277 330.377 40.4917C327.819 40.9934 325.567 42.1209 323.596 43.8115C320.257 46.3859 325.141 47.8461 324.428 50.0649C321.515 53.2963 321.409 57.4605 320.658 61.4071C321.049 67.0041 321.271 72.6496 324.566 77.5344C324.085 78.521 325.05 79.0101 325.331 79.7359C325.648 79.8945 325.958 80.0461 326.281 80.1973C327.73 81.5466 329.173 82.9032 330.608 84.2529C330.864 84.4914 331.12 84.7299 331.376 84.9685C331.845 85.4046 332.313 85.8407 332.781 86.2768C334.291 84.3621 337.169 88.0802 338.372 84.9099L340.334 85.5757C342.63 86.0599 343.98 83.6414 346.125 83.671C348.411 84.6791 350.116 83.0829 352.03 82.3919C352.53 82.5297 353.01 82.7036 353.43 82.9576C354.893 82.9124 355.693 82.1268 355.939 80.717C360.735 77.8997 364.126 73.7739 366.865 69.0276C369.436 65.9428 370.863 62.7079 368.294 58.908C368.257 58.8881 368.215 58.8755 368.178 58.8555C368.338 58.7579 368.381 58.5795 368.322 58.3198C367.541 57.442 366.858 56.5606 368.153 55.5522C368.473 54.4157 367.829 53.8302 366.902 53.4317C366.724 53.4026 366.533 53.3882 366.335 53.3812C366.335 53.3812 366.328 53.3885 366.314 53.389C366.314 53.389 366.299 53.3895 366.285 53.39L366.234 53.3423C366.467 53.3269 366.713 53.2828 366.966 53.2171C368.456 50.9705 367.26 49.5698 365.448 48.3608C363.689 46.8458 361.937 45.3375 360.171 43.8297C358.965 40.7807 356.645 39.8092 353.548 40.2594L353.555 40.252ZM325.082 74.9547C325.082 74.9547 325.017 74.8933 324.98 74.8593C325.016 74.8792 325.059 74.8918 325.095 74.9118C325.081 74.9264 325.082 74.9405 325.076 74.962L325.082 74.9547ZM361.021 57.9435C360.878 58.0971 360.735 58.2508 360.6 58.4396C360.231 59.2028 359.976 60.0043 359.978 60.8392C359.989 67.2847 356.365 71.2206 351.055 74.12C349.195 75.1345 346.918 75.5553 345.724 77.6003C345.733 77.8406 345.755 78.0521 345.79 78.2631C342.56 77.9467 339.613 79.4528 336.483 79.7626C336.416 79.6589 336.348 79.5551 336.26 79.4592C335.572 79.0239 334.894 78.857 334.206 79.2C334.193 79.0518 334.188 78.8964 334.168 78.7414C332.668 76.552 331.727 73.7907 328.985 72.8767C328.98 72.7354 328.982 72.6009 328.97 72.4527C326.913 65.5638 327.477 58.5883 328.311 51.6033C328.251 51.5064 328.177 51.4241 328.117 51.3413C329.095 49.7923 331.569 49.3078 331.378 46.9302L331.669 46.5589L332.033 46.27C334.232 46.4179 336.407 46.4889 338.441 45.3904C338.907 45.3596 339.372 45.3147 339.838 45.284C340.092 45.4659 340.359 45.6191 340.661 45.7357C344.408 46.069 348.149 46.4096 351.897 46.7429C351.915 47.0606 351.969 47.3842 352.066 47.7062C356.001 50.3041 358.453 54.186 361.042 57.9498L361.021 57.9435Z" fill="#11A267"/>
<path d="M289.916 56.3548C288.853 54.3125 286.566 54.0827 284.878 52.9755C283.451 53.0264 282.016 53.0705 280.589 53.1215C276.201 50.3204 271.699 51.2664 267.188 52.7505C267.123 53.0995 266.926 53.34 266.606 53.493C265.648 53.2017 264.699 52.9738 263.865 53.8101C263.385 53.8273 262.897 53.8376 262.423 53.8474C259.975 54.4513 257.663 55.2908 256.099 57.441C255.607 57.1473 255.16 57.0995 254.833 57.6701C253.421 59.1427 251.362 60.136 251.272 62.5661C249.353 63.5261 247.026 64.1327 247.413 67.0624C247.137 69.6336 245.825 72.1285 246.798 74.7967C246.638 75.4816 246.479 76.1807 246.32 76.8657C246.863 79.2024 247.406 81.5392 247.95 83.876C248.362 84.3283 248.774 84.7805 249.187 85.2328C250.37 88.2614 251.575 91.2821 253.997 93.5377C254.066 93.889 254.143 94.2472 254.282 94.5818C254.645 95.234 255.183 95.6393 255.93 95.7471C257.386 97.1032 258.85 98.4661 260.306 99.8221C263.744 102.367 267.559 103.787 271.897 103.619C276.589 105.623 280.421 102.55 284.592 101.46C290.953 97.915 296.416 93.5456 298.702 86.2328C298.524 86.0127 298.353 85.7853 298.189 85.5506C300.33 82.4883 299.713 78.8664 300.25 75.4863C299.842 73.166 299.434 70.8597 299.026 68.5394C299.605 65.922 298.106 64.1712 296.509 62.4522C296.046 62.7729 295.611 62.8592 295.238 62.3206C294.367 59.5286 292.652 57.4812 289.916 56.3406L289.916 56.3548ZM278.75 55.1399C278.75 55.1399 278.689 55.2058 278.655 55.2424C278.655 55.2424 278.655 55.2424 278.654 55.2283C278.654 55.2283 278.633 55.2361 278.619 55.2366C278.575 55.1957 278.532 55.1831 278.482 55.1495C278.567 55.1465 278.651 55.1435 278.743 55.1472L278.75 55.1399ZM284.506 59.2011C284.583 59.5734 284.279 59.9875 284.546 60.3176C285.233 61.7224 286.327 62.6456 287.842 63.0586C287.974 63.0043 288.086 62.9579 288.218 62.9036C288.348 65.1561 290.029 66.2565 291.765 67.3267C292.237 67.6565 292.725 67.441 293.158 67.2982C293.139 67.3626 293.119 67.3987 293.101 67.463C292.086 68.3907 292.727 69.0825 293.437 69.7576C293.581 69.8374 293.732 69.8957 293.876 69.9613C293.823 71.8524 293.771 73.7576 293.718 75.6486C293.564 75.6825 293.409 75.7163 293.226 75.737C292.055 77.2151 291.872 78.6296 293.354 79.9282C290.514 82.23 291.412 85.9763 289.906 88.7966C289.887 89.2572 289.92 89.7655 289.923 90.2465L287.985 92.2685C287.751 92.2415 287.495 92.194 287.202 92.1125C286.077 92.5276 285.292 93.3269 284.749 94.3792C284.658 94.5948 284.581 94.8239 284.526 95.0453C283.779 94.9375 283.359 95.476 283.015 96.1393C282.772 96.2682 282.559 96.4386 282.339 96.6162C282.241 96.4711 282.137 96.3333 282.02 96.2101C278.772 96.0006 275.585 96.1213 272.817 98.0527C272.779 97.9903 272.756 97.9275 272.711 97.8725C267.301 95.7589 262.496 92.5694 257.637 89.4668C257.386 89.3696 257.143 89.2934 256.907 89.2098C256.601 88.1877 256.117 87.2993 255.113 86.7337C255.208 86.6312 255.298 86.5502 255.392 86.4336C254.466 82.2779 253.023 78.3246 250.833 74.6598C252.061 72.373 253.742 70.3319 254.681 67.8856C254.857 67.844 255.039 67.795 255.221 67.7602C257.392 66.3384 259.288 64.7283 259.333 61.8328C259.326 61.826 259.311 61.8123 259.311 61.7982C260.474 62.4713 260.964 61.9302 261.039 60.6469C261.107 60.793 261.177 60.9533 261.212 61.136C266.187 61.1778 271.016 60.482 275.544 58.2756C275.661 58.1794 275.748 58.056 275.857 57.9389C275.915 57.9652 275.972 57.9914 276.023 58.025C276.708 58.5949 277.42 58.52 278.127 58.3037C278.249 58.5399 278.406 58.7678 278.605 58.9942C280.314 60.2847 282.114 60.9775 284.217 59.8199C284.397 59.5093 284.414 59.2115 284.305 58.9182C284.337 59.0303 284.37 59.1565 284.402 59.2685C284.43 59.2392 284.45 59.2173 284.47 59.1812L284.506 59.2011Z" fill="#11A267"/>
<path d="M260.759 132.763C260.541 132.587 260.309 132.439 260.07 132.299C259.37 132.494 258.669 132.689 257.976 132.89C257.357 132.601 256.927 131.449 256.03 132.486C255.536 132.532 255.035 132.571 254.542 132.617C253.329 132.158 252.091 131.565 251.191 132.913C251.147 132.872 251.124 132.823 251.087 132.775C249.477 131.877 247.938 131.564 246.65 133.33C245.69 133.803 244.716 134.276 243.757 134.749C243.028 134.959 242.383 135.3 241.872 135.878C241.832 135.936 241.792 135.994 241.744 136.059C241.271 136.083 240.812 136.107 240.339 136.13C239.044 137.521 237.756 138.904 236.454 140.288C236.004 140.771 235.555 141.254 235.105 141.737C233.737 142.458 233.383 143.85 232.892 145.142C232.74 145.465 232.589 145.789 232.445 146.106L230.911 150.13C231.062 153.945 231.205 157.768 231.355 161.583C230.544 163.438 232.068 164.884 232.212 166.562C232.555 166.649 232.796 166.86 232.928 167.188C233.039 168.125 233.144 169.069 233.248 169.999C234.561 170.717 233.879 172.814 235.524 173.307C239.566 179.503 244.27 184.84 252.022 186.346C253.259 186.911 254.49 187.482 255.727 188.047C256.3 187.46 256.85 186.811 257.809 187.307C258.752 187.352 259.694 187.396 260.644 187.433C261.631 187.942 262.073 187.042 262.717 186.644C268.224 186.511 273.112 184.695 277.352 181.155C279.104 181.283 280.385 180.7 280.792 178.825C285.152 175.301 289.165 171.549 290.056 165.602C290.327 164.475 290.584 163.348 290.855 162.22C290.777 160.822 291.616 159.349 290.501 158.037C290.257 157.359 290 156.682 289.756 156.004C289.751 155.467 289.732 154.93 289.727 154.392C289.54 154.109 289.286 153.927 288.95 153.847C288.527 152.893 288.841 151.558 287.487 151.104C286.31 149.448 285.754 147.359 283.984 146.121C284.388 144.366 282.67 145.58 282.292 144.914C278.959 135.963 270.249 133.21 260.73 132.75L260.759 132.763ZM237.19 140.672C237.19 140.672 237.241 140.734 237.264 140.769C237.194 140.785 237.13 140.795 237.06 140.811C237.101 140.767 237.142 140.723 237.19 140.672ZM288.715 164.299C288.715 164.299 288.724 164.348 288.732 164.383C288.725 164.39 288.711 164.391 288.697 164.391C288.666 164.322 288.635 164.252 288.612 164.189C288.649 164.223 288.678 164.265 288.715 164.313L288.715 164.299ZM280.755 151.804C280.579 153.813 281.56 154.945 283.609 155.254C283.761 155.15 283.923 155.123 284.108 155.145C283.844 155.296 283.572 155.411 283.276 155.436C284.227 158.685 283.757 162.183 284.989 165.38C284.997 165.387 285.004 165.393 285.018 165.393C280.508 169.679 276.269 174.217 272.14 178.871C272.149 178.921 272.179 178.962 272.188 179.011C268.318 178.046 265.329 180.126 262.242 181.857C261.439 181.164 260.668 181.184 259.951 182.087C258.659 180.994 257.281 181.036 255.816 181.817C255.689 182.232 255.59 182.441 255.492 182.458C255.552 182.159 255.457 181.879 255.244 181.654C254.492 181.008 253.693 181.03 252.876 181.526C249.064 178.591 244.874 176.165 241.149 173.107C240.93 172.931 240.619 172.942 240.304 173.017C240.304 173.017 240.317 173.002 240.324 172.995C239.818 169.517 238.282 166.735 235.165 165.035C235.226 164.969 235.288 164.903 235.349 164.851C235.608 164.75 235.716 164.605 235.716 164.414C235.89 164.344 236.064 164.26 236.252 164.161C235.892 158.839 236.33 153.453 235.215 148.193C235.939 148.252 236.495 147.978 236.77 147.168C239.897 147.934 242.031 147.051 242.66 143.675C242.895 143.702 243.128 143.715 243.369 143.721C245.312 142.852 246.904 141.465 248.527 140.133C248.674 139.902 248.864 139.682 249.069 139.463C252.625 141.176 256.184 139.98 259.731 139.033C259.757 138.975 259.783 138.918 259.809 138.86C260.074 139.134 260.41 139.228 260.81 139.15C260.941 139.053 261.043 138.93 261.152 138.812C261.866 139.997 263.186 140.091 264.337 140.425C269.727 141.959 274.595 144.347 278.282 148.723C278.503 148.778 278.71 148.821 278.909 148.842C278.334 150.575 279.504 151.24 280.77 151.832L280.755 151.804Z" fill="#11A267"/>
<path d="M284.455 59.3008C284.455 59.3008 284.455 59.3008 284.447 59.294C284.447 59.294 284.44 59.3013 284.434 59.3086L284.455 59.3008Z" fill="#11A267"/>
</g>
<path d="M360.752 159.429C362.814 158.405 363.088 156.124 364.227 154.457C364.204 153.029 364.187 151.594 364.163 150.166C367.048 145.832 366.189 141.313 364.792 136.775C364.444 136.703 364.207 136.502 364.06 136.179C364.37 135.226 364.616 134.281 363.796 133.432C363.788 132.951 363.787 132.463 363.786 131.99C363.23 129.531 362.435 127.203 360.315 125.597C360.618 125.111 360.674 124.665 360.11 124.327C358.665 122.887 357.711 120.81 355.283 120.673C354.36 118.736 353.799 116.398 350.862 116.729C348.297 116.403 345.827 115.044 343.141 115.965C342.459 115.792 341.763 115.62 341.082 115.447C338.735 115.945 336.388 116.444 334.041 116.942C333.581 117.346 333.121 117.749 332.661 118.153C329.61 119.278 326.567 120.424 324.265 122.803C323.913 122.865 323.553 122.935 323.216 123.068C322.557 123.418 322.141 123.948 322.019 124.693C320.635 126.123 319.245 127.56 317.861 128.99C315.25 132.378 313.757 136.165 313.843 140.506C311.748 145.159 314.747 149.048 315.757 153.24C319.179 159.668 323.443 165.213 330.711 167.64C330.934 167.466 331.165 167.3 331.402 167.14C334.423 169.339 338.056 168.792 341.425 169.394C343.753 169.03 346.067 168.667 348.394 168.303C351 168.932 352.779 167.467 354.529 165.904C354.217 165.435 354.139 164.998 354.685 164.635C357.493 163.818 359.573 162.143 360.766 159.429L360.752 159.429ZM362.181 148.289C362.181 148.289 362.116 148.226 362.08 148.191C362.08 148.191 362.08 148.191 362.094 148.191C362.094 148.191 362.087 148.17 362.087 148.156C362.128 148.113 362.142 148.07 362.176 148.02C362.178 148.105 362.179 148.19 362.173 148.282L362.181 148.289ZM358.01 153.965C357.636 154.035 357.228 153.724 356.893 153.984C355.475 154.644 354.531 155.72 354.089 157.227C354.141 157.36 354.185 157.473 354.237 157.606C351.982 157.693 350.85 159.352 349.746 161.067C349.407 161.533 349.614 162.024 349.748 162.461C349.684 162.44 349.648 162.42 349.584 162.4C348.676 161.368 347.972 161.995 347.284 162.692C347.201 162.835 347.14 162.984 347.072 163.127C345.182 163.038 343.278 162.949 341.388 162.86C341.358 162.705 341.327 162.55 341.31 162.366C339.854 161.167 338.443 160.957 337.117 162.414C334.87 159.53 331.107 160.356 328.316 158.797C327.856 158.769 327.347 158.791 326.866 158.785L324.882 156.809C324.913 156.575 324.966 156.32 325.053 156.029C324.659 154.896 323.875 154.096 322.833 153.533C322.62 153.438 322.392 153.357 322.172 153.297C322.294 152.552 321.764 152.122 321.107 151.765C320.983 151.52 320.817 151.304 320.643 151.08C320.79 150.986 320.93 150.884 321.055 150.769C321.327 147.526 321.268 144.337 319.39 141.532C319.453 141.496 319.516 141.474 319.572 141.43C321.789 136.061 325.07 131.319 328.266 126.521C328.368 126.272 328.448 126.03 328.536 125.795C329.564 125.509 330.462 125.042 331.047 124.049C331.147 124.147 331.226 124.237 331.341 124.334C335.514 123.488 339.494 122.121 343.2 120.002C345.463 121.273 347.472 122.994 349.899 123.979C349.938 124.155 349.983 124.339 350.014 124.522C351.394 126.72 352.968 128.646 355.862 128.747C355.869 128.739 355.883 128.725 355.897 128.725C355.202 129.875 355.733 130.375 357.015 130.474C356.867 130.541 356.706 130.607 356.522 130.638C356.385 135.612 356.988 140.454 359.107 145.023C359.201 145.141 359.323 145.231 359.438 145.342C359.41 145.399 359.383 145.456 359.349 145.507C358.766 146.181 358.827 146.894 359.029 147.605C358.791 147.722 358.56 147.874 358.33 148.069C357.007 149.753 356.28 151.54 357.397 153.664C357.704 153.85 358.001 153.874 358.296 153.77C358.184 153.8 358.057 153.83 357.944 153.86C357.973 153.888 357.995 153.909 358.03 153.93L358.01 153.965Z" fill="#11A267"/>
</g>
<defs>
<clipPath id="clip0_306_9699">
<rect width="356" height="160" rx="8" fill="white"/>
</clipPath>
<clipPath id="clip1_306_9699">
<rect width="181.78" height="102.44" fill="white" transform="translate(187 130.039) rotate(-47.0433)"/>
</clipPath>
</defs>
</svg>
