<?xml version="1.0" encoding="UTF-8"?>
<svg xmlns="http://www.w3.org/2000/svg" xmlns:xlink="http://www.w3.org/1999/xlink" width="153px" height="24px" viewBox="0 0 153 24" version="1.1">
<g id="surface1">
<path style=" stroke:none;fill-rule:nonzero;fill:rgb(34.117647%,25.490196%,85.098039%);fill-opacity:1;" d="M 14.28125 0.0351562 C 16.933594 -0.144531 19.636719 0.390625 22.007812 1.589844 C 25.527344 3.328125 28.332031 6.441406 29.632812 10.117188 C 30.21875 11.753906 30.523438 13.464844 30.523438 15.199219 L 30.523438 21.609375 C 30.523438 21.863281 30.523438 22.144531 30.472656 22.398438 C 30.320312 23.039062 29.859375 23.625 29.25 23.90625 C 28.816406 24.109375 28.332031 24.136719 27.898438 24.058594 C 26.929688 23.878906 26.164062 22.960938 26.164062 21.964844 C 26.164062 19.972656 26.164062 17.984375 26.164062 15.992188 C 26.1875 15.429688 26.1875 14.816406 25.882812 14.332031 C 25.398438 13.414062 24.175781 12.976562 23.230469 13.359375 C 22.414062 13.640625 21.828125 14.484375 21.800781 15.351562 C 21.800781 17.371094 21.800781 19.386719 21.800781 21.402344 C 21.800781 21.785156 21.828125 22.167969 21.699219 22.527344 C 21.496094 23.242188 20.910156 23.804688 20.195312 24.007812 C 19.253906 24.261719 18.179688 23.855469 17.722656 22.988281 C 17.390625 22.476562 17.417969 21.835938 17.441406 21.25 C 17.441406 19.234375 17.441406 17.242188 17.441406 15.226562 C 17.417969 14.203125 16.574219 13.285156 15.582031 13.15625 C 14.917969 13.054688 14.230469 13.285156 13.746094 13.746094 C 13.3125 14.152344 13.082031 14.738281 13.082031 15.328125 L 13.082031 21.175781 C 13.082031 21.660156 13.132812 22.167969 12.953125 22.628906 C 12.671875 23.472656 11.832031 24.085938 10.941406 24.058594 C 10.023438 24.109375 9.128906 23.472656 8.847656 22.628906 C 8.695312 22.195312 8.722656 21.761719 8.722656 21.300781 C 8.722656 19.285156 8.722656 17.269531 8.722656 15.25 C 8.722656 14.253906 7.929688 13.335938 6.960938 13.15625 C 6.070312 12.976562 5.101562 13.414062 4.640625 14.230469 C 4.460938 14.5625 4.359375 14.945312 4.359375 15.328125 L 4.359375 21.890625 C 4.359375 22.527344 4.078125 23.164062 3.59375 23.574219 C 2.855469 24.210938 1.65625 24.261719 0.890625 23.675781 C 0.332031 23.292969 0 22.628906 0 21.941406 L 0 15.300781 C 0 12.800781 0.636719 10.296875 1.835938 8.074219 C 2.804688 6.261719 4.15625 4.65625 5.761719 3.378906 C 8.132812 1.386719 11.167969 0.210938 14.28125 0.0351562 Z M 14.28125 0.0351562 "/>
<path style=" stroke:none;fill-rule:nonzero;fill:rgb(34.117647%,25.490196%,85.098039%);fill-opacity:1;" d="M 73.875 7.71875 L 70.558594 7.71875 C 70.6875 5.394531 71.171875 3.300781 73.285156 1.972656 C 75.402344 0.671875 77.722656 0.367188 80.148438 0.570312 C 81.445312 0.671875 82.746094 0.953125 83.945312 1.515625 C 86.0625 2.484375 87.109375 4.144531 87.109375 6.46875 C 87.109375 10.578125 87.109375 14.6875 87.109375 18.800781 C 87.109375 20.304688 87.414062 20.585938 88.917969 20.433594 C 89.070312 20.40625 89.25 20.382812 89.402344 20.355469 C 89.429688 20.433594 89.429688 20.511719 89.429688 20.5625 L 89.429688 23.0625 C 88.230469 23.472656 87.007812 23.597656 85.808594 23.269531 C 84.914062 23.011719 84.355469 22.375 84.046875 21.53125 C 83.894531 21.097656 83.792969 20.636719 83.664062 20.152344 C 83.539062 20.304688 83.4375 20.433594 83.308594 20.5625 C 80.683594 23.214844 77.570312 24.339844 73.898438 23.394531 C 71.296875 22.730469 69.511719 20.355469 69.4375 17.652344 C 69.410156 16.78125 69.488281 15.914062 69.691406 15.070312 C 70.175781 13.132812 71.554688 11.957031 73.285156 11.164062 C 74.511719 10.605469 75.835938 10.449219 77.164062 10.273438 C 78.71875 10.066406 80.25 9.890625 81.804688 9.660156 C 82.847656 9.507812 83.386719 8.945312 83.539062 7.898438 C 83.871094 5.777344 82.925781 4.375 80.886719 3.863281 C 79.660156 3.558594 78.414062 3.507812 77.164062 3.734375 C 75.328125 4.066406 74.308594 5.113281 73.949219 6.925781 C 73.976562 7.183594 73.925781 7.4375 73.875 7.71875 Z M 83.640625 11.804688 C 82.109375 12.621094 80.632812 12.824219 79.125 13.054688 C 77.878906 13.257812 76.601562 13.4375 75.378906 13.820312 C 73.773438 14.355469 73.03125 15.683594 73.183594 17.472656 C 73.3125 18.953125 74.308594 20.152344 75.914062 20.40625 C 78.386719 20.816406 80.578125 20.128906 82.3125 18.289062 C 82.824219 17.753906 83.230469 16.988281 83.335938 16.273438 C 83.5625 14.84375 83.539062 13.386719 83.640625 11.804688 Z M 130.890625 16.09375 C 130.816406 16.449219 130.765625 16.757812 130.6875 17.039062 C 129.257812 21.402344 126.351562 23.269531 122.832031 23.675781 C 116.738281 24.339844 113.246094 20.355469 112.351562 16.117188 C 111.640625 12.75 111.742188 9.402344 113.21875 6.238281 C 114.621094 3.25 116.867188 1.285156 120.207031 0.699219 C 124.210938 -0.015625 129.871094 1.972656 130.816406 8.230469 C 131.070312 9.835938 131.121094 11.496094 131.273438 13.183594 L 115.769531 13.183594 C 115.898438 15.480469 116.253906 17.625 117.9375 19.285156 C 118.625 19.972656 119.519531 20.304688 120.488281 20.484375 C 123.625 21.046875 126.226562 19.539062 127.246094 16.5 C 127.347656 16.167969 127.5 16.066406 127.832031 16.09375 C 128.824219 16.09375 129.820312 16.09375 130.890625 16.09375 Z M 115.898438 10.222656 L 127.5 10.222656 C 127.371094 8.867188 127.144531 7.617188 126.503906 6.441406 C 125.894531 5.320312 125 4.5 123.777344 4.09375 C 119.773438 2.714844 115.640625 5.90625 115.898438 10.222656 Z M 139.230469 22.9375 L 135.710938 22.9375 L 135.710938 1.03125 L 139.050781 1.03125 L 139.050781 4.09375 C 139.304688 3.8125 139.460938 3.632812 139.613281 3.453125 C 142.007812 0.722656 145.019531 0.0078125 148.433594 0.851562 C 150.808594 1.4375 152.132812 3.121094 152.59375 5.472656 C 152.769531 6.441406 152.898438 7.4375 152.898438 8.40625 C 152.921875 13.105469 152.921875 17.804688 152.921875 22.5 C 152.921875 22.628906 152.898438 22.757812 152.898438 22.910156 L 149.300781 22.910156 L 149.300781 22.324219 C 149.300781 17.929688 149.328125 13.539062 149.277344 9.148438 C 149.277344 8.179688 149.125 7.183594 148.84375 6.238281 C 148.382812 4.707031 147.160156 3.890625 145.554688 3.8125 C 142.621094 3.710938 140.300781 5.269531 139.585938 7.871094 C 139.332031 8.816406 139.253906 9.8125 139.253906 10.808594 C 139.230469 14.664062 139.230469 18.492188 139.230469 22.296875 Z M 92.84375 1.03125 L 96.238281 1.03125 L 96.238281 10.324219 C 96.441406 10.117188 96.570312 10.015625 96.695312 9.890625 C 99.476562 7.054688 102.253906 4.195312 105.035156 1.359375 C 105.265625 1.105469 105.492188 1.003906 105.851562 1.003906 C 107.152344 1.03125 108.476562 1.003906 109.90625 1.003906 C 109.699219 1.207031 109.597656 1.335938 109.472656 1.464844 C 107.023438 3.914062 104.601562 6.390625 102.128906 8.816406 C 101.847656 9.097656 101.847656 9.277344 102.027344 9.582031 C 104.703125 13.847656 107.355469 18.109375 110.007812 22.375 C 110.109375 22.527344 110.183594 22.679688 110.3125 22.910156 C 110.132812 22.9375 110.007812 22.9375 109.855469 22.9375 C 108.628906 22.9375 107.429688 22.9375 106.207031 22.9375 C 105.875 22.9375 105.722656 22.808594 105.542969 22.554688 C 103.503906 19.132812 101.464844 15.710938 99.425781 12.261719 C 99.324219 12.109375 99.246094 11.957031 99.117188 11.777344 C 98.175781 12.722656 97.257812 13.617188 96.339844 14.5625 C 96.210938 14.6875 96.1875 14.917969 96.1875 15.097656 C 96.1875 17.496094 96.1875 19.898438 96.1875 22.296875 L 96.1875 22.910156 C 95.523438 22.910156 94.859375 22.910156 94.222656 22.910156 C 93.761719 22.910156 93.125 23.039062 92.871094 22.78125 C 92.640625 22.578125 92.769531 21.914062 92.769531 21.453125 L 92.769531 1.617188 C 92.84375 1.488281 92.84375 1.285156 92.84375 1.03125 Z M 53.703125 1.003906 C 50.949219 3.734375 48.273438 6.417969 45.570312 9.097656 C 48.476562 13.746094 51.304688 18.289062 54.1875 22.9375 C 53.957031 22.9375 53.804688 22.960938 53.652344 22.960938 C 52.480469 22.960938 51.28125 22.960938 50.109375 22.960938 C 49.777344 22.960938 49.570312 22.832031 49.394531 22.554688 C 47.351562 19.132812 45.3125 15.710938 43.273438 12.261719 C 43.195312 12.109375 43.09375 11.984375 42.96875 11.777344 C 42.457031 12.316406 42 12.902344 41.4375 13.308594 C 40.289062 14.179688 39.957031 15.25 40.035156 16.679688 C 40.164062 18.542969 40.058594 20.433594 40.058594 22.296875 L 40.058594 22.910156 L 36.695312 22.910156 L 36.695312 1.03125 L 40.058594 1.03125 L 40.058594 10.167969 C 40.136719 10.222656 40.214844 10.273438 40.265625 10.324219 C 40.367188 10.167969 40.417969 9.992188 40.519531 9.863281 C 43.273438 7.03125 46.054688 4.222656 48.808594 1.359375 C 49.0625 1.105469 49.292969 0.976562 49.675781 1.003906 C 50.820312 1.03125 51.96875 1.003906 53.117188 1.003906 C 53.296875 1.003906 53.449219 1.003906 53.703125 1.003906 Z M 60.433594 4.65625 C 62.144531 2.152344 63.953125 0.0585938 67.320312 0.671875 L 67.320312 4.425781 C 66.425781 4.476562 65.535156 4.449219 64.695312 4.628906 C 62.628906 5.0625 61.023438 6.953125 60.691406 9.25 C 60.640625 9.710938 60.589844 10.167969 60.589844 10.628906 C 60.589844 14.535156 60.589844 18.441406 60.589844 22.347656 L 60.589844 22.960938 L 57.121094 22.960938 L 57.121094 1.082031 L 60.433594 1.082031 C 60.433594 2.230469 60.433594 3.378906 60.433594 4.65625 Z M 60.433594 4.65625 "/>
</g>
</svg>
