<?xml version="1.0" standalone="no"?>
<!DOCTYPE svg PUBLIC "-//W3C//DTD SVG 20010904//EN"
 "http://www.w3.org/TR/2001/REC-SVG-20010904/DTD/svg10.dtd">
<svg version="1.0" xmlns="http://www.w3.org/2000/svg"
 width="965.000000pt" height="329.000000pt" viewBox="0 0 965.000000 329.000000"
 preserveAspectRatio="xMidYMid meet">
<metadata>
Created by potrace 1.16, written by Peter Selinger 2001-2019
</metadata>
<g transform="translate(0.000000,329.000000) scale(0.100000,-0.100000)"
fill="#000000" stroke="none">
<path d="M452 2944 l-22 -15 0 -1299 0 -1299 22 -15 c20 -14 160 -16 1305 -16
1270 0 1283 0 1303 20 20 20 20 33 20 1310 0 1277 0 1290 -20 1310 -20 20 -33
20 -1303 20 -1145 0 -1285 -2 -1305 -16z m1719 -884 c18 -10 19 -26 19 -430 0
-404 -1 -420 -19 -430 -13 -6 -164 -10 -422 -10 -360 0 -404 2 -421 17 -17 15
-18 41 -18 421 0 363 2 407 17 424 15 17 41 18 420 18 260 0 411 -4 424 -10z"/>
<path d="M3546 2939 l-26 -20 0 -1285 0 -1285 25 -24 24 -25 396 0 396 0 24
25 25 24 0 421 0 420 423 0 c398 0 425 1 440 18 15 17 17 61 17 425 0 355 -2
408 -16 421 -14 14 -67 16 -440 16 l-424 0 0 420 0 421 -25 24 -24 25 -394 0
c-384 0 -395 -1 -421 -21z"/>
<path d="M5316 2939 l-26 -20 0 -403 0 -403 23 -21 c23 -22 26 -22 421 -22
l397 0 24 25 25 24 0 396 0 396 -25 24 -24 25 -394 0 c-384 0 -395 -1 -421
-21z"/>
<path d="M6640 2940 c-19 -19 -20 -33 -20 -425 0 -392 1 -406 20 -425 19 -19
33 -20 419 -20 378 0 400 1 422 19 l24 19 0 407 0 407 -24 19 c-22 18 -44 19
-422 19 -386 0 -400 -1 -419 -20z"/>
<path d="M8410 2940 c-19 -19 -20 -33 -20 -425 0 -392 1 -406 20 -425 19 -19
33 -20 419 -20 378 0 400 1 422 19 l24 19 0 407 0 407 -24 19 c-22 18 -44 19
-422 19 -386 0 -400 -1 -419 -20z"/>
<path d="M7526 2054 c-14 -13 -16 -66 -16 -424 0 -358 2 -411 16 -424 13 -14
66 -16 423 -16 382 0 409 1 424 18 15 17 17 61 17 424 0 380 -1 406 -18 421
-17 15 -61 17 -425 17 -355 0 -408 -2 -421 -16z"/>
<path d="M5312 1167 c-22 -23 -22 -26 -22 -424 l0 -402 26 -20 c26 -20 37 -21
421 -21 l394 0 24 25 25 24 0 396 0 396 -25 24 -24 25 -399 0 -399 0 -21 -23z"/>
<path d="M6640 1170 c-19 -19 -20 -33 -20 -425 0 -392 1 -406 20 -425 19 -19
33 -20 419 -20 378 0 400 1 422 19 l24 19 0 407 0 407 -24 19 c-22 18 -44 19
-422 19 -386 0 -400 -1 -419 -20z"/>
<path d="M8410 1170 c-19 -19 -20 -33 -20 -425 0 -392 1 -406 20 -425 19 -19
33 -20 419 -20 378 0 400 1 422 19 l24 19 0 407 0 407 -24 19 c-22 18 -44 19
-422 19 -386 0 -400 -1 -419 -20z"/>
</g>
</svg>
