<svg width="486" height="250" viewBox="0 0 486 250" fill="none" xmlns="http://www.w3.org/2000/svg">
<rect width="486" height="250" rx="8" fill="#3968FC"/>
<g clip-path="url(#clip0_1377_108090)">
<g clip-path="url(#clip1_1377_108090)">
<path d="M370.552 -1.97449V-1.99829H305.772L243.392 -1.97449H119.835V-1.99829H-46.6179V-1.97449H-53.4259V-1.99829L-104.417 -1.97449H-130.875V499.002H620.077V-1.97449H370.552ZM118.65 60.3492C102.175 60.6408 86.6949 67.2225 74.9491 78.9637C63.1974 90.7048 56.6337 106.147 56.2942 122.53H-3.6674C-3.32789 90.193 9.51378 59.7423 32.6002 36.6766C55.6628 13.6347 86.1171 0.828385 118.626 0.46538L118.65 60.3492ZM60.9936 122.602L61.0651 122.53H58.7124C59.0281 106.796 65.3774 91.9604 76.6407 80.6835C87.9516 69.4065 102.807 63.0629 118.626 62.7475V122.602H60.9936ZM109.227 125.047L73.5196 160.818V125.047H109.227ZM-3.69122 0.447527H95.1051C71.0001 5.2618 48.7595 17.0981 30.9086 34.9627C13.0041 52.8511 1.13333 75.0718 -3.68527 99.1788V0.447527H-3.69122ZM-53.4259 0.447527H-46.6179V9.64761H-23.5553L-53.4259 39.4676V0.447527ZM-128.451 144.049C-119.606 198.654 -75.4938 241.518 -20.3806 248.344C-74.4038 255.003 -117.962 295.927 -128.451 348.623V144.049ZM-84.2137 125.071L-6.13924 125V186.336L-6.47279 186.669L-6.13924 245.702V246.904H-6.13329V246.91C-72.879 246.261 -127.021 191.971 -127.676 125.095L-84.2137 125.071ZM-96.3764 122.679L-87.1204 113.455H-111.005L-56.8388 59.3376H-23.3111L-86.7809 122.679H-96.3764ZM-10.7851 249.945H-6.13329V371.98H-128.451C-127.825 306.437 -75.7857 252.992 -10.7851 249.945ZM-22.1973 374.402C-43.3717 380.383 -60.0612 397.057 -66.071 418.189V374.402H-22.1973ZM-128.451 374.402H-84.5771C-105.752 380.383 -122.441 397.105 -128.451 418.26V374.402ZM-128.451 496.58V452.817C-122.441 473.925 -105.728 490.599 -84.5056 496.58H-128.451ZM-68.4952 496.556C-101.612 495.925 -128.332 468.866 -128.451 435.684V435.297C-128.332 402.115 -101.606 375.05 -68.4893 374.426V496.556H-68.4952ZM-66.071 496.58V452.793C-60.0612 473.948 -43.3479 490.599 -22.1496 496.58H-66.071ZM-6.10946 496.556C-39.2977 495.925 -66.071 468.771 -66.071 435.488C-66.071 402.204 -39.3036 375.074 -6.10946 374.42V496.556ZM-6.10946 122.655H-83.3203L-17.474 56.9156H-57.8335L-116.848 115.877H-92.9873L-99.7715 122.655H-128.451V0.471331L-100.105 0.447527H-55.8441V45.3232L-17.7122 7.2256H-44.1937V0.447527H-6.10946V122.655ZM-4.06051 125H-3.69122L55.228 124.952L-4.06051 184.259V125ZM62.6197 175.463V129.647L-4.0069 196.958L-4.05456 187.663L58.5694 125.024H62.6137H71.0954V166.68L112.664 125.024H118.626V130.957L77.0278 172.613H118.626V180.962V186.603L57.7237 247.475L48.9561 247.499L115.505 180.962H68.701L2.15186 247.523H-3.70909V247.38L-3.73291 241.959L62.6197 175.463ZM-3.71504 238.471L-3.69122 200.082L60.1955 135.527V174.446L-3.71504 238.471ZM118.602 134.414V170.185H82.8709L118.602 134.414ZM98.4942 269.934H91.4182V335.209H98.4942V371.974H72.5964V349.825H79.863V320.683H72.5964V249.891L98.4942 249.867V269.934ZM105.594 272.356V332.793H93.8423V272.356H105.594ZM16.4886 358.376H23.5646V309.65H16.4886V249.945L42.1898 249.921V273.861H35.1137V333.43H42.1898V371.986H16.4886V358.376ZM9.39465 355.954V312.072H21.1463V355.954H9.39465ZM5.73157 247.374L69.7136 183.378H109.638L45.6325 247.374H5.73157ZM37.5439 331.002V276.277H49.2956V331.002H37.5439ZM44.6199 333.424H51.7198V273.855H44.6199V249.915L70.1782 249.891V320.689H63.2749V349.831H70.1782V371.98H44.6199V333.424ZM65.6931 347.415V323.111H77.4448V347.415H65.6931ZM61.2855 247.374L118.626 190.037V247.374H61.2855ZM-3.71504 249.945H14.0643V309.656H6.96451V358.382H14.0643V371.986H-3.71504V249.945ZM14.3324 495.08C13.3615 495.223 12.3728 495.348 11.4019 495.467C10.3357 495.61 9.2934 495.758 8.2034 495.878C7.20871 495.973 6.16637 496.044 5.15381 496.145C4.11147 496.217 3.06912 496.312 2.00294 496.389C0.960602 496.437 -0.10556 496.461 -1.1479 496.484C-1.99368 496.508 -2.84544 496.532 -3.69122 496.556V374.402H118.602C118.602 374.961 118.579 375.538 118.555 376.098C118.531 377.502 118.507 378.907 118.412 380.287C118.388 381.037 118.317 381.763 118.239 382.489C118.144 383.822 118.043 385.149 117.9 386.458C117.828 387.232 117.703 388.006 117.608 388.779C117.441 390.041 117.292 391.296 117.101 392.552C116.982 393.373 116.81 394.2 116.667 395.022C116.446 396.182 116.256 397.372 115.988 398.533C115.815 399.431 115.601 400.276 115.38 401.169C115.136 402.258 114.898 403.347 114.606 404.436C114.362 405.358 114.076 406.275 113.808 407.221C113.516 408.215 113.248 409.209 112.938 410.196C112.622 411.214 112.283 412.208 111.92 413.196C111.628 414.088 111.336 414.987 110.996 415.856C110.609 416.945 110.174 417.986 109.734 419.051C109.418 419.825 109.126 420.622 108.787 421.402C108.304 422.562 107.768 423.699 107.238 424.842C106.922 425.496 106.654 426.175 106.345 426.799C105.737 428.061 105.082 429.293 104.433 430.501C104.165 431.031 103.902 431.566 103.634 432.072C102.884 433.429 102.086 434.786 101.311 436.113C101.091 436.452 100.901 436.839 100.68 437.202C99.7331 438.725 98.7443 440.225 97.7496 441.73C97.6543 441.873 97.5769 442.022 97.4816 442.165C88.5889 455.257 77.2542 466.587 64.1207 475.472C63.9777 475.567 63.8288 475.668 63.662 475.763C62.1849 476.757 60.6839 477.721 59.1591 478.644C58.8434 478.84 58.5277 479.007 58.2121 479.203C56.8302 480.024 55.4246 480.851 54.0189 481.601C53.5841 481.845 53.1254 482.06 52.6847 482.303C51.3743 483.006 50.0699 483.684 48.7357 484.339C48.1758 484.583 47.6219 484.821 47.062 485.089C45.829 485.672 44.5663 486.249 43.3095 486.785C42.6543 487.076 41.9992 487.314 41.3499 487.582C40.1646 488.064 38.9734 488.552 37.7643 488.986C37.0376 489.254 36.2871 489.492 35.5605 489.76C34.399 490.147 33.2375 490.557 32.0701 490.92C31.272 491.188 30.4738 491.402 29.6459 491.623C28.5321 491.962 27.4183 492.301 26.2806 492.593C25.411 492.813 24.5354 493.003 23.6658 493.223C22.552 493.491 21.462 493.753 20.372 493.973C19.425 494.17 18.5077 494.336 17.5607 494.509C16.4886 494.693 15.4224 494.913 14.3324 495.08ZM118.722 496.58H19.7347C19.8538 496.556 19.9789 496.532 20.098 496.508C20.7294 496.365 21.331 496.217 21.9385 496.098C23.2489 495.806 24.5533 495.514 25.8637 495.175C26.5903 495.009 27.317 494.788 28.0437 494.592C29.2051 494.277 30.3666 493.961 31.5102 493.598C32.2607 493.378 33.035 493.14 33.7855 492.896C34.8993 492.533 35.9893 492.17 37.0793 491.783C37.8298 491.515 38.5803 491.254 39.3308 490.962C40.4208 490.551 41.5107 490.117 42.6007 489.677C43.3036 489.385 44.0064 489.093 44.7093 488.808C45.8707 488.302 47.0084 487.766 48.152 487.237C48.7595 486.969 49.3849 486.701 49.9686 486.416C51.5887 485.618 53.2148 484.797 54.7872 483.922C55.0791 483.779 55.3471 483.631 55.6092 483.488C57.0863 482.667 58.5397 481.839 59.993 480.971C60.6005 480.608 61.1783 480.221 61.7858 479.834C62.7805 479.203 63.799 478.572 64.8116 477.9C65.4668 477.465 66.122 477.007 66.7712 476.543C67.6706 475.912 68.5879 475.281 69.4873 474.633C70.1424 474.151 70.7976 473.639 71.4469 473.133C72.3165 472.479 73.1682 471.8 74.014 471.122C74.6692 470.616 75.3006 470.08 75.926 469.551C76.7717 468.849 77.6235 468.123 78.4454 467.397C79.0292 466.867 79.6307 466.331 80.2383 465.802C81.1079 465.004 81.9596 464.153 82.8293 463.332C83.3117 462.85 83.8478 462.362 84.3302 461.856C85.6406 460.547 86.9212 459.22 88.1839 457.839C88.4996 457.476 88.8153 457.113 89.131 456.75C90.078 455.709 90.9953 454.644 91.9185 453.555C92.4009 452.972 92.8655 452.37 93.348 451.787C94.0508 450.895 94.7536 449.996 95.4565 449.103C95.9389 448.449 96.4274 447.77 96.9098 447.092C97.565 446.223 98.1964 445.348 98.798 444.456C99.2804 443.777 99.745 443.075 100.204 442.373C100.811 441.48 101.389 440.558 101.973 439.636C102.407 438.933 102.842 438.231 103.283 437.529C103.843 436.559 104.397 435.595 104.957 434.601C105.344 433.923 105.731 433.244 106.118 432.542C106.702 431.429 107.28 430.293 107.84 429.18C108.131 428.597 108.447 428.019 108.709 427.436C109.531 425.74 110.305 423.997 111.062 422.259C111.235 421.848 111.401 421.438 111.568 421.027C112.128 419.646 112.682 418.266 113.194 416.891C113.438 416.237 113.653 415.558 113.897 414.904C114.308 413.719 114.719 412.553 115.106 411.345C115.327 410.643 115.541 409.917 115.761 409.191C116.101 408.03 116.44 406.87 116.756 405.68C116.947 404.954 117.143 404.228 117.34 403.478C117.632 402.27 117.923 401.056 118.186 399.824C118.328 399.122 118.477 398.42 118.62 397.717C118.644 397.497 118.692 397.307 118.716 397.087V496.58H118.722ZM118.722 279.664V371.98H100.918V335.215H108.018V269.934H100.918V249.867H118.722V279.664ZM121.05 62.7713C153.828 63.4021 180.333 89.9014 180.988 122.625H121.05V62.7713ZM121.05 185.366V134.658V125.047H130.67H212.211V147.774H181.03V172.899H149.849V196.547H121.045V185.366H121.05ZM212.211 150.196V175.44V198.237H183.454V172.899V150.196H212.211ZM181.03 175.321V200.659V223.362H152.273V196.541V175.315H181.03V175.321ZM121.146 314.351V307.359C122.962 275.7 149.003 250.457 181.006 249.826V371.932H180.232C148.765 370.891 122.962 345.427 121.146 314.351ZM164.877 371.932H145.4C145.203 371.932 145.012 371.956 144.816 371.956C144.673 371.956 144.524 371.98 144.357 371.98H121.152V328.265C127.227 349.128 143.869 365.88 164.877 371.932ZM121.146 293.315V279.664V249.653H121.777H165.454C144.113 255.461 127.251 272.136 121.146 293.315ZM121.098 198.969H149.855V225.79V247.041H121.098V198.969ZM153.149 496.58L162.357 487.38H138.496L192.662 433.232H226.19L162.768 496.58H153.149ZM243.392 496.58H166.181L232.027 430.816H191.668L132.653 489.802H156.514L149.73 496.58H121.146V374.402H144.351C144.572 374.402 144.786 374.378 144.983 374.378C145.126 374.354 145.275 374.354 145.394 374.354H180.208C180.232 374.354 180.256 374.354 180.256 374.354H182.632H193.657V419.254L231.789 381.156H205.308V374.354H213.98H243.392V496.58ZM225.946 383.572L196.075 413.392V374.348H202.883V383.572H225.946ZM196.075 371.932H183.43V327.884C189.416 348.944 206.13 365.839 227.233 371.932H213.98H202.883H196.075ZM242.665 371.932C210.007 370.891 183.43 343.517 183.43 310.888C183.43 294.624 189.827 279.301 201.406 267.732C212.717 256.455 227.572 250.111 243.368 249.796L243.392 371.932H242.665ZM183.43 293.583V249.653H227.81C217.298 252.533 207.654 258.098 199.685 266.042C191.864 273.832 186.337 283.294 183.43 293.583ZM243.392 237.597V237.912V247.398H152.279V225.784H183.46V200.659H214.641V175.44H243.398V237.597H243.392ZM243.392 173.024H214.635V147.78V124.958H243.392V173.024ZM212.211 122.53V122.625H183.43C182.775 88.5446 155.156 60.98 121.05 60.3254V0.447527H121.247C188.302 1.19734 242.689 55.535 243.392 122.53H212.211ZM243.392 99.2979C233.504 49.5781 194.187 10.3201 144.429 0.447527H243.392V99.2979ZM495.317 0.447527C527.731 0.762925 558.233 13.6169 581.367 36.6825C604.478 59.772 617.319 90.2465 617.635 122.631H495.317V0.447527ZM597.473 145.019H590.373V210.3H597.473V247.237H571.575V224.897H578.842V195.75H571.575V125.047H597.473V145.019ZM604.549 147.435V207.872H592.797V147.435H604.549ZM608.218 249.713L572.546 285.424V249.653H593.101V249.713H608.218ZM515.467 233.437H522.543V184.717H515.467V125.047H541.169V148.91H534.093V208.503H541.169V247.231H515.467V233.437ZM508.373 231.015V187.133H520.125V231.015H508.373ZM536.523 206.087V151.338H548.274V206.087H536.523ZM543.599 208.503H550.699V148.916H543.599V125.053H555.249H557.721H569.157V195.75H562.254V224.892H569.157V247.231H557.721H555.249H543.599V208.503ZM564.672 222.47V198.166H576.424V222.47H564.672ZM495.317 187.347V184.902V125.047H513.049V184.711H505.949V233.431H513.049V247.225H495.317V187.347ZM495.317 284.859V249.653H550.603L495.317 304.937V284.859ZM495.317 335.685V323.664L559.323 259.669V298.611L495.317 362.613V335.685ZM495.317 374.402H553.557L495.317 432.59V374.402ZM504.693 371.98L568.674 307.984H608.599L544.617 371.98H504.693ZM370.552 62.7713C386.372 63.0867 401.244 69.4006 412.561 80.6835C423.848 91.9604 430.174 106.826 430.49 122.631H370.552V62.7713ZM370.552 125.047H414.33C393.227 131.052 376.562 147.679 370.552 168.763V125.047ZM370.552 203.516C376.562 224.6 393.227 241.227 414.33 247.231H370.552V203.516ZM430.513 272.933V298.058H399.332V321.73H370.576V249.653H461.688V272.933H430.513ZM461.688 275.355V300.599V323.421H432.932V298.052V275.349H461.688V275.355ZM430.513 300.48V325.848V348.551H401.757V321.73V300.48H430.513ZM399.332 324.152V350.973V372.2H370.576V324.152H399.332ZM368.128 0.447527V60.3254C352.308 60.01 337.411 53.6664 326.118 42.3894C314.855 31.0887 308.482 16.2234 308.19 0.441576H368.128V0.447527ZM306.981 11.5817C309.381 23.781 315.361 35.0579 324.421 44.1093C328.924 48.6141 333.992 52.3631 339.49 55.291C344.964 58.2188 350.854 60.3254 357.007 61.5335C344.773 63.9317 333.486 69.9064 324.427 78.9577C315.367 87.9852 309.381 99.2622 306.987 111.461C304.563 99.2384 298.559 87.9852 289.493 78.9577C280.481 69.9302 269.218 63.9495 257.032 61.5335C269.242 59.1115 280.505 53.113 289.493 44.1093C298.553 35.0579 304.562 23.8048 306.981 11.5817ZM368.128 62.7475V122.602H308.22C308.512 106.82 314.861 91.9366 326.148 80.6537C337.459 69.3768 352.355 63.0391 368.128 62.7475ZM245.81 0.447527H305.772C305.456 16.2531 299.083 31.1125 287.796 42.3954C276.532 53.6723 261.654 60.016 245.81 60.3314V0.447527ZM245.81 62.7713C261.606 63.0629 276.503 69.4006 287.796 80.6835C299.083 91.9366 305.456 106.826 305.772 122.608H245.81V62.7713ZM245.81 125.024H368.128V247.16V247.666H367.961H367.526H245.81V125.024ZM289.589 250.088C268.509 256.092 251.844 272.719 245.834 293.773V250.088H289.589ZM245.834 328.366C251.772 349.009 268.051 365.714 288.784 371.98H245.834V328.366ZM245.81 374.402H344.678C294.943 384.304 255.697 423.562 245.81 473.276V374.402ZM368.128 496.58H308.22C308.22 496.24 308.22 495.901 308.243 495.586C308.267 495.08 308.267 494.592 308.315 494.086C308.339 493.551 308.386 493.045 308.434 492.515C308.458 492.009 308.506 491.521 308.553 491.039C308.625 490.534 308.696 489.998 308.774 489.492C308.821 489.01 308.893 488.522 308.964 488.04C309.059 487.505 309.161 486.999 309.256 486.493C309.328 486.035 309.423 485.547 309.524 485.065C309.643 484.559 309.744 484.071 309.864 483.565C309.983 483.107 310.108 482.619 310.227 482.161C310.346 481.655 310.495 481.167 310.638 480.685C310.781 480.227 310.906 479.762 311.049 479.304C311.216 478.822 311.365 478.334 311.531 477.852C311.698 477.418 311.847 476.96 312.014 476.495C312.181 476.037 312.377 475.549 312.574 475.091C312.74 474.657 312.937 474.222 313.104 473.782C313.324 473.3 313.515 472.836 313.735 472.377C313.926 471.967 314.122 471.532 314.343 471.092C314.563 470.658 314.801 470.199 315.022 469.759C315.242 469.348 315.456 468.914 315.677 468.503C315.921 468.069 316.183 467.635 316.451 467.194C316.672 466.784 316.91 466.373 317.154 465.986C317.422 465.552 317.714 465.117 317.976 464.677C318.22 464.314 318.458 463.903 318.727 463.54C319.018 463.106 319.334 462.695 319.626 462.279C319.894 461.892 320.156 461.529 320.424 461.166C320.74 460.755 321.079 460.345 321.395 459.904C321.687 459.565 321.925 459.226 322.217 458.887C322.58 458.428 322.967 457.994 323.354 457.554C323.622 457.262 323.861 456.971 324.105 456.709C324.665 456.102 325.243 455.501 325.802 454.917C325.993 454.751 326.166 454.578 326.333 454.412C326.94 453.805 327.566 453.204 328.197 452.62C328.465 452.376 328.733 452.162 328.995 451.918C329.454 451.508 329.918 451.097 330.401 450.71C330.716 450.442 331.032 450.228 331.348 449.96C331.783 449.621 332.217 449.258 332.682 448.919C333.021 448.651 333.385 448.413 333.724 448.169C334.159 447.854 334.594 447.538 335.059 447.223C335.422 446.979 335.785 446.765 336.149 446.521C336.607 446.229 337.042 445.914 337.507 445.652C337.87 445.408 338.257 445.217 338.644 444.997C339.103 444.706 339.567 444.438 340.026 444.176C340.413 443.98 340.824 443.789 341.211 443.569C341.67 443.325 342.158 443.087 342.641 442.843C343.028 442.647 343.439 442.456 343.85 442.284C344.332 442.04 344.821 441.826 345.303 441.605C345.714 441.439 346.149 441.266 346.566 441.099C347.048 440.903 347.561 440.713 348.043 440.516C348.478 440.373 348.913 440.225 349.354 440.058C349.836 439.891 350.348 439.719 350.854 439.552C351.289 439.433 351.724 439.284 352.189 439.165C352.695 439.023 353.207 438.874 353.714 438.731C354.148 438.612 354.607 438.511 355.072 438.392C355.578 438.273 356.114 438.148 356.62 438.029C357.079 437.934 357.567 437.856 358.026 437.761C358.532 437.666 359.068 437.565 359.574 437.493C360.057 437.398 360.545 437.35 361.028 437.273C361.534 437.202 362.07 437.13 362.6 437.077C363.083 437.029 363.571 436.981 364.054 436.934C364.584 436.886 365.12 436.839 365.656 436.815C366.138 436.791 366.65 436.767 367.133 436.743C367.472 436.743 367.812 436.743 368.128 436.72V496.58ZM368.128 434.304C367.788 434.304 367.449 434.327 367.109 434.327C366.579 434.351 366.043 434.375 365.513 434.399C364.983 434.446 364.423 434.47 363.893 434.518C363.386 434.565 362.85 434.613 362.344 434.661C361.814 434.732 361.278 434.803 360.748 434.881C360.242 434.952 359.705 435 359.199 435.101C358.693 435.172 358.157 435.268 357.651 435.369C357.144 435.464 356.632 435.565 356.126 435.684C355.619 435.779 355.083 435.904 354.577 436.023C354.095 436.142 353.582 436.267 353.1 436.386C352.594 436.529 352.081 436.678 351.551 436.821C351.093 436.964 350.604 437.112 350.146 437.255C349.616 437.422 349.127 437.594 348.621 437.761C348.162 437.928 347.674 438.076 347.215 438.243C346.733 438.439 346.221 438.654 345.738 438.85C345.279 439.017 344.815 439.213 344.38 439.38C343.874 439.6 343.385 439.838 342.903 440.058C342.468 440.254 342.033 440.445 341.592 440.665C341.11 440.909 340.622 441.147 340.163 441.391C339.728 441.611 339.317 441.825 338.9 442.069C338.418 442.313 337.929 442.599 337.471 442.867C337.06 443.111 336.673 443.325 336.262 443.569C335.803 443.861 335.315 444.176 334.856 444.491C334.469 444.735 334.082 444.974 333.718 445.217C333.26 445.533 332.795 445.872 332.313 446.211C331.973 446.479 331.61 446.717 331.246 446.985C330.788 447.348 330.299 447.711 329.841 448.098C329.525 448.342 329.186 448.58 328.894 448.848C328.358 449.282 327.851 449.716 327.369 450.157C327.101 450.377 326.863 450.591 326.595 450.811C325.118 452.168 323.688 453.596 322.33 455.096C322.11 455.34 321.895 455.602 321.651 455.87C321.216 456.352 320.781 456.863 320.37 457.369C320.102 457.685 319.864 458 319.596 458.315C319.233 458.797 318.846 459.262 318.482 459.744C318.238 460.083 318 460.422 317.756 460.785C317.416 461.243 317.053 461.707 316.737 462.189C316.493 462.552 316.255 462.939 316.01 463.302C315.695 463.784 315.379 464.248 315.087 464.73C314.843 465.117 314.629 465.528 314.408 465.915C314.116 466.397 313.824 466.885 313.562 467.367C313.342 467.777 313.128 468.188 312.907 468.599C312.663 469.081 312.401 469.569 312.157 470.051C311.96 470.485 311.77 470.919 311.573 471.336C311.329 471.842 311.114 472.33 310.894 472.836C310.697 473.27 310.531 473.728 310.364 474.169C310.144 474.674 309.953 475.162 309.756 475.668C309.584 476.126 309.441 476.591 309.274 477.073C309.107 477.555 308.911 478.066 308.768 478.572C308.601 479.054 308.476 479.542 308.333 480.001C308.19 480.506 308.041 481.042 307.898 481.548C307.779 482.03 307.654 482.518 307.535 483.024C307.416 483.529 307.29 484.041 307.171 484.571C307.076 485.053 306.981 485.565 306.879 486.07C306.784 486.6 306.683 487.112 306.588 487.641C306.516 488.147 306.445 488.659 306.367 489.165C306.296 489.7 306.224 490.23 306.171 490.789C306.123 491.295 306.075 491.807 306.028 492.337C305.98 492.872 305.932 493.402 305.909 493.961C305.885 494.467 305.861 495.003 305.837 495.532C305.813 495.872 305.789 496.211 305.789 496.574H245.81V496.407C246.561 429.412 301.019 375.05 368.128 374.42V434.304ZM368.151 371.98H325.368C346.203 365.785 362.261 349.372 368.151 328.681V371.98ZM368.151 311.685C367.883 343.201 343.999 369.1 312.627 371.98H301.364C270.231 369.123 245.84 342.428 245.84 311.18C245.84 277.486 273.262 250.088 307.011 250.088C340.443 250.088 367.866 277.242 368.157 310.644V311.685H368.151ZM368.151 293.827C362.118 272.743 345.405 256.092 324.325 250.088H368.151V293.827ZM370.552 496.58V436.726C403.329 437.38 429.834 463.856 430.484 496.58H370.552ZM432.932 496.58C432.276 462.523 404.657 434.934 370.552 434.28L370.576 374.616H376.413C377.431 374.664 378.426 374.759 379.439 374.86C380.457 374.931 381.476 375.003 382.488 375.104C383.53 375.223 384.549 375.372 385.591 375.515C386.586 375.634 387.605 375.759 388.617 375.925C389.636 376.068 390.63 376.264 391.643 376.455C392.638 376.622 393.656 376.794 394.645 377.014C395.64 377.234 396.628 377.473 397.599 377.693C398.594 377.937 399.589 378.151 400.577 378.419C401.548 378.663 402.489 378.954 403.46 379.216C404.431 379.508 405.42 379.776 406.391 380.085C407.338 380.377 408.255 380.716 409.178 381.031C410.149 381.347 411.138 381.662 412.085 382.025C413.008 382.364 413.901 382.727 414.795 383.09C415.742 383.477 416.707 383.84 417.654 384.251C418.523 384.614 419.399 385.024 420.245 385.411C421.192 385.845 422.157 386.256 423.08 386.72C423.926 387.131 424.754 387.565 425.576 387.982C426.523 388.464 427.464 388.928 428.387 389.434C429.161 389.868 429.936 390.326 430.74 390.791C431.663 391.32 432.604 391.856 433.527 392.415C434.254 392.85 434.981 393.338 435.707 393.82C436.654 394.403 437.595 394.98 438.495 395.611C439.198 396.069 439.853 396.581 440.532 397.039C441.455 397.717 442.396 398.348 443.319 399.05C443.903 399.485 444.481 399.943 445.064 400.407C446.035 401.157 447 401.907 447.971 402.681C448.334 403.02 448.698 403.335 449.085 403.674C454.44 408.203 459.431 413.184 463.934 418.557C464.154 418.801 464.345 419.016 464.541 419.26C465.435 420.325 466.287 421.438 467.156 422.551C467.496 423.009 467.859 423.419 468.199 423.884C468.997 424.949 469.747 426.014 470.498 427.103C470.861 427.633 471.272 428.144 471.635 428.674C472.338 429.739 473.017 430.828 473.696 431.893C474.083 432.477 474.47 433.054 474.834 433.661C475.489 434.702 476.091 435.791 476.698 436.857C477.061 437.511 477.449 438.142 477.812 438.791C478.396 439.832 478.926 440.921 479.486 442.01C479.825 442.688 480.188 443.367 480.528 444.069C481.058 445.134 481.547 446.223 482.029 447.312C482.345 448.038 482.684 448.74 483 449.49C483.458 450.555 483.893 451.668 484.334 452.757C484.626 453.507 484.942 454.281 485.227 455.031C485.615 456.12 485.978 457.232 486.365 458.321C486.633 459.119 486.925 459.916 487.163 460.72C487.527 461.809 487.818 462.921 488.134 464.01C488.378 464.855 488.64 465.683 488.861 466.528C489.153 467.617 489.391 468.729 489.635 469.818C489.855 470.687 490.07 471.586 490.243 472.455C490.487 473.544 490.654 474.633 490.874 475.722C491.047 476.644 491.214 477.561 491.356 478.507C491.529 479.572 491.648 480.637 491.791 481.702C491.91 482.696 492.059 483.66 492.178 484.63C492.274 485.695 492.345 486.737 492.446 487.802C492.518 488.82 492.619 489.837 492.667 490.879C492.738 491.896 492.762 492.938 492.786 493.979L492.857 496.592H432.932V496.58ZM492.893 435.006L492.387 435.488L492.893 435.994V473.145C492.869 473.026 492.822 472.877 492.798 472.734C492.726 472.324 492.625 471.913 492.53 471.473C492.214 470.045 491.875 468.616 491.535 467.188C491.392 466.605 491.243 466.052 491.076 465.468C490.713 464.088 490.326 462.731 489.915 461.38C489.796 460.922 489.647 460.458 489.504 460.023C488.944 458.256 488.366 456.489 487.735 454.745C487.616 454.43 487.467 454.114 487.348 453.799C486.818 452.37 486.258 450.942 485.674 449.538C485.454 449.032 485.239 448.496 485.019 447.991C484.459 446.705 483.881 445.45 483.274 444.188C483.077 443.754 482.887 443.319 482.666 442.879C481.868 441.207 481.016 439.588 480.147 437.963C480.028 437.743 479.879 437.529 479.76 437.309C479.009 435.904 478.211 434.524 477.383 433.173C477.115 432.715 476.823 432.227 476.537 431.768C475.811 430.608 475.06 429.448 474.31 428.305C474.018 427.894 473.75 427.484 473.464 427.043C472.445 425.544 471.379 424.044 470.289 422.592C470.194 422.473 470.093 422.348 470.021 422.229C469.003 420.896 467.96 419.593 466.894 418.284C466.555 417.873 466.191 417.439 465.852 417.022C464.982 416.005 464.107 414.987 463.213 413.975C462.85 413.589 462.51 413.178 462.147 412.791C460.914 411.458 459.651 410.131 458.371 408.846C457.084 407.56 455.756 406.305 454.422 405.097C454.035 404.734 453.624 404.371 453.213 404.008C452.218 403.115 451.229 402.24 450.187 401.395C449.776 401.032 449.341 400.669 448.9 400.33C447.614 399.265 446.333 398.247 444.999 397.253C444.88 397.158 444.731 397.033 444.612 396.938C443.158 395.849 441.681 394.807 440.18 393.79C439.722 393.474 439.281 393.183 438.822 392.897C437.708 392.171 436.595 391.445 435.481 390.743C434.975 390.451 434.486 390.136 433.98 389.821C432.669 389.047 431.341 388.273 429.983 387.524C429.715 387.381 429.477 387.232 429.209 387.089C427.613 386.244 425.987 385.417 424.367 384.62C423.884 384.376 423.396 384.161 422.913 383.941C421.704 383.358 420.489 382.805 419.256 382.269C418.696 382.025 418.142 381.787 417.582 381.567C416.224 381.007 414.866 380.454 413.49 379.948C413.127 379.805 412.764 379.656 412.4 379.537C410.679 378.907 408.934 378.329 407.195 377.77C406.712 377.627 406.2 377.478 405.717 377.336C404.407 376.925 403.079 376.562 401.721 376.199C401.137 376.032 400.559 375.884 399.952 375.741C398.546 375.378 397.141 375.062 395.711 374.747C395.491 374.699 395.276 374.652 395.056 374.604H401.768V374.384H492.905V435.006H492.893ZM492.893 310.793V322.677V335.685V362.512V371.974H401.757V350.967H432.938V325.842H464.119V300.599H492.899V310.793H492.893ZM464.113 298.183V272.933V250.111H492.869V298.183H464.113ZM492.893 247.231H449.139C470.242 241.227 486.883 224.6 492.893 203.546V247.231ZM492.893 186.288C492.822 219.905 465.423 247.231 431.722 247.231C397.998 247.231 370.552 219.833 370.552 186.139C370.552 152.445 397.998 125.047 431.722 125.047C465.399 125.047 492.798 152.374 492.893 185.967V186.288ZM492.893 168.763C486.883 147.679 470.218 131.052 449.139 125.047H492.893V168.763ZM432.932 122.631C432.616 106.171 426.028 90.7286 414.277 78.9934C402.501 67.2285 387.021 60.6468 370.552 60.3314V0.447527C437.708 1.10213 492.238 55.535 492.893 122.631H432.932ZM492.893 99.3217C483.006 49.5781 443.689 10.3201 393.882 0.447527H492.893V99.3217ZM495.317 496.58V438.416L553.557 496.58H495.317ZM495.824 435.488L556.488 374.908L617.146 435.488L556.488 496.068L495.824 435.488ZM617.653 496.58H559.389L617.653 438.416V496.58ZM617.653 432.56L559.413 374.396H617.653V432.56ZM563.338 371.98L617.629 317.666L617.653 371.98H563.338ZM617.653 255.58L576.078 297.213H617.653V305.562V314.25L559.901 371.974H548.03L614.46 305.556H567.68L501.256 371.974H495.323V366.047L561.753 299.605V253.813L495.323 320.249V308.365L554.046 249.647H561.747H570.128V291.256L611.643 249.707H617.659V255.58H617.653ZM617.629 259.02V294.791H581.921L617.629 259.02ZM617.653 184.907V187.353V247.237V247.297H614.055L614.115 247.237H599.897V210.3H606.973V145.019H599.897V125.047H617.653V184.907ZM617.653 99.2205C612.834 75.0896 600.987 52.8452 583.083 34.9806C565.178 17.0922 542.938 5.25585 518.785 0.441576H617.653V99.2205Z" fill="#1B4CE7"/>
<path d="M449.145 247.23H492.899V203.544C486.889 224.599 470.248 241.226 449.145 247.23Z" fill="#1B4CE7"/>
<path d="M492.899 168.762V125.047H449.145C470.224 131.052 486.889 147.678 492.899 168.762Z" fill="#1B4CE7"/>
<path d="M492.901 99.3199V0.445801H393.891C443.697 10.3183 483.014 49.5764 492.901 99.3199Z" fill="#7596FF"/>
<path d="M370.555 0.445801V60.3237C387.03 60.6391 402.51 67.2208 414.28 78.9857C426.031 90.7268 432.619 106.169 432.935 122.624H492.896C492.241 55.5332 437.705 1.1004 370.555 0.445801Z" fill="#7596FF"/>
<path d="M431.713 154.699C414.368 154.699 400.246 168.785 400.246 186.138C400.246 203.467 414.368 217.577 431.713 217.577C449.081 217.577 463.204 203.467 463.204 186.138C463.204 168.785 449.081 154.699 431.713 154.699ZM431.713 215.161C415.697 215.161 402.664 202.14 402.664 186.138C402.664 170.142 415.697 157.116 431.713 157.116C447.747 157.116 460.785 170.136 460.785 186.138C460.785 202.14 447.747 215.161 431.713 215.161Z" fill="#1B4CE7"/>
<path d="M461.695 249.652H370.582V321.729H399.339V298.057H430.52V272.932H461.695V249.652Z" fill="#3968FC"/>
<path d="M431.736 157.115C415.72 157.115 402.688 170.136 402.688 186.138C402.688 202.14 415.72 215.16 431.736 215.16C447.77 215.16 460.809 202.14 460.809 186.138C460.809 170.142 447.77 157.115 431.736 157.115Z" fill="#7596FF"/>
<path d="M412.564 80.683C401.253 69.406 386.374 63.0861 370.555 62.7708V122.625H430.486C430.177 106.825 423.851 91.9599 412.564 80.683Z" fill="#1B4CE7"/>
<path d="M414.333 125.047H370.555V168.762C376.57 147.678 393.236 131.052 414.333 125.047Z" fill="#1B4CE7"/>
<path d="M370.555 203.515V247.231H414.333C393.23 241.226 376.565 224.599 370.555 203.515Z" fill="#1B4CE7"/>
<path d="M367.527 247.664H367.962H368.129V247.159L367.527 247.302V247.664Z" fill="#3968FC"/>
<path d="M308.227 122.6H368.14V62.746C352.368 63.0376 337.472 69.3753 326.155 80.6582C314.862 91.9351 308.518 106.824 308.227 122.6Z" fill="#7596FF"/>
<path d="M368.131 60.3237V0.445801H308.199C308.491 16.2276 314.864 31.087 326.128 42.3937C337.415 53.6706 352.311 60.0083 368.131 60.3237Z" fill="#1B4CE7"/>
<path d="M267.207 225.86H346.741V146.422H267.207V225.86ZM269.631 148.838H344.323V223.432H269.631V148.838Z" fill="#1B4CE7"/>
<path d="M344.309 148.838H269.617V223.432H344.309V148.838ZM325.415 204.556H288.522V167.72H325.415V204.556Z" fill="#7596FF"/>
<path d="M288.527 204.556H325.42V167.72H288.527V204.556ZM290.952 170.142H323.002V202.14H290.952V170.142Z" fill="#1B4CE7"/>
<path d="M305.774 0.445801H245.812V60.3237C261.656 60.0083 276.529 53.6647 287.798 42.3877C299.085 31.1108 305.458 16.2514 305.774 0.445801Z" fill="#7596FF"/>
<path d="M287.798 80.683C276.511 69.406 261.608 63.0623 245.812 62.7708V122.601H305.774C305.458 106.825 299.085 91.9361 287.798 80.683Z" fill="#7596FF"/>
<path d="M214.629 200.659H183.448V225.784H152.273V247.398H243.386V237.912V237.596V175.439H214.629V200.659Z" fill="#3968FC"/>
<path d="M214.645 147.773V173.023H243.401V124.951H214.645V147.773Z" fill="#1B4CE7"/>
<path d="M201.406 267.731C189.827 279.299 183.43 294.623 183.43 310.887C183.43 343.515 210.006 370.889 242.665 371.931H243.391L243.367 249.795C227.571 250.11 212.717 256.454 201.406 267.731Z" fill="#7596FF"/>
<path d="M121.243 0.445801H121.047V60.3237C155.158 60.9783 182.777 88.5429 183.427 122.624H212.207V122.528H243.388C242.691 55.5332 188.305 1.19561 121.243 0.445801Z" fill="#1B4CE7"/>
</g>
<rect x="240" y="-2" width="326" height="266" fill="url(#paint0_linear_1377_108090)"/>
</g>
<defs>
<linearGradient id="paint0_linear_1377_108090" x1="240" y1="131" x2="566" y2="131" gradientUnits="userSpaceOnUse">
<stop stop-color="#3968FC"/>
<stop offset="1" stop-color="#3968FC" stop-opacity="0"/>
</linearGradient>
<clipPath id="clip0_1377_108090">
<rect width="246" height="250" fill="white" transform="translate(240)"/>
</clipPath>
<clipPath id="clip1_1377_108090">
<rect width="750.952" height="501" fill="white" transform="translate(-130.871 -2)"/>
</clipPath>
</defs>
</svg>
