<svg width="486" height="250" viewBox="0 0 486 250" fill="none" xmlns="http://www.w3.org/2000/svg">
<g clip-path="url(#clip0_1378_96248)">
<rect width="486" height="250" rx="8" fill="#3968FC"/>
<g clip-path="url(#clip1_1378_96248)">
<path fill-rule="evenodd" clip-rule="evenodd" d="M516.484 20.2219C505.796 20.4469 495.653 21.9915 485.8 24.2668C486.786 36.7285 488.142 49.4293 489.525 62.3832L489.526 62.3858L489.53 62.4265C489.717 64.181 489.905 65.9401 490.093 67.7039C490.677 73.2047 491.258 78.7493 491.809 84.3373C495.058 83.7591 498.386 83.2776 501.801 82.9115C506.686 82.388 511.608 81.9841 516.484 81.4225V84.7938C511.732 85.3435 506.919 85.7221 502.157 86.2325C498.731 86.5997 495.393 87.0861 492.133 87.6723C493.927 106.38 495.325 125.573 495.345 145.242C502.299 142.211 509.321 139.611 516.484 137.863V141.304C509.381 143.104 502.367 145.772 495.333 148.897C495.243 160.302 494.673 171.866 493.432 183.588C493.011 189.085 492.58 194.94 492.146 200.996C499.755 197.852 507.809 194.921 516.484 192.503V195.972C507.724 198.463 499.591 201.485 491.88 204.725C490.6 222.752 489.306 242.228 488.183 259.117L487.772 265.3C488.139 265.136 488.507 264.971 488.874 264.805C489.039 264.731 489.204 264.657 489.37 264.582C491.321 263.703 493.27 262.818 495.217 261.934C502.32 258.71 509.398 255.496 516.484 252.591V256.204C509.902 258.936 503.306 261.93 496.627 264.962C494.673 265.849 492.712 266.739 490.742 267.627C489.671 268.11 488.597 268.592 487.521 269.072C486.641 282.27 485.91 293.051 485.439 299H482.089C482.536 293.407 483.231 283.203 484.072 270.599C473.673 275.167 463.027 279.468 451.993 282.625C441.734 285.56 431.142 287.505 420.084 287.774C420.042 291.767 420.188 295.533 420.566 299H417.207C416.845 295.515 416.705 291.76 416.744 287.803C401.301 287.701 384.94 284.252 367.313 275.635C365.867 284.678 364.527 292.722 363.4 299H360.007C361.193 292.432 362.629 283.803 364.182 274.057C363.488 273.697 362.791 273.328 362.092 272.951C357.694 270.883 353.449 268.863 349.331 266.903L349.314 266.895L349.312 266.894C341.25 263.056 333.674 259.449 326.386 256.177C324.1 268.465 322.102 281.247 320.875 295.483C320.767 296.736 320.668 297.903 320.578 299H317.228C317.323 297.818 317.43 296.557 317.547 295.197C318.812 280.524 320.89 267.378 323.249 254.782C307.14 247.691 292.325 242.342 276.581 239.876C276.512 239.865 276.443 239.854 276.374 239.844L276.252 239.825C274.516 251.394 272.396 263.446 269.818 275.941C268.749 281.715 267.79 286.506 266.99 290.508C266.321 293.852 265.763 296.646 265.342 299H261.95C262.389 296.487 263 293.432 263.735 289.75C264.54 285.725 265.494 280.95 266.537 275.316L266.54 275.299L266.543 275.282C269.108 262.855 271.217 250.867 272.944 239.36C254.731 237.052 235.021 238.652 210.524 246.049C209.117 263.791 207.939 281.482 207.39 299H204.048C204.585 281.817 205.724 264.477 207.089 247.114C199.39 249.564 191.221 252.574 182.484 256.2L182.484 252.586C191.306 248.962 199.57 245.959 207.374 243.522C208.138 234.013 208.962 224.501 209.784 215.006L209.784 215.004C210.249 209.627 210.714 204.255 211.168 198.894C211.441 195.667 211.709 192.443 211.971 189.223C202.948 190.915 193.178 193.146 182.484 195.968V192.515C193.26 189.69 203.122 187.459 212.25 185.774C213.614 168.702 214.766 151.758 215.348 135.054C205.246 136.383 194.415 138.459 182.484 141.323V137.888C194.416 135.047 205.286 132.986 215.458 131.671C215.968 114.777 215.866 98.1376 214.779 81.8716C203.494 82.3267 193.731 83.4731 184.858 84.5151C184.06 84.6088 183.269 84.7017 182.484 84.7931V81.4241C183.034 81.36 183.587 81.2951 184.145 81.2298C193.077 80.1834 203.067 79.0132 214.541 78.5428C213.292 62.0727 211.261 50.2653 209.296 38.841C208.651 35.0943 208.014 31.3888 207.414 27.5735C207.029 25.1257 206.66 22.6378 206.315 20.0709C197.431 19.9338 189.375 20.0311 182.484 20.2755V16.9336C189.27 16.6952 197.177 16.5979 205.886 16.7243C204.613 6.28969 203.773 -5.63664 203.863 -21.4482C196.212 -21.7978 189.071 -22.0556 182.484 -22.2462L182.484 -25.5876C189.081 -25.3972 196.232 -25.1397 203.895 -24.7902C203.939 -28.0286 204.021 -31.4257 204.144 -35H207.486C207.36 -31.3654 207.277 -27.9166 207.234 -24.6337C214.259 -24.295 221.695 -23.8791 229.508 -23.3678C238.539 -22.7768 248.895 -21.2227 259.887 -19.2814C260.209 -24.2023 260.865 -29.4082 261.93 -35H265.332C264.195 -29.1691 263.511 -23.7738 263.196 -18.6893C267.342 -17.9383 271.568 -17.1413 275.836 -16.3285C277.295 -16.0506 278.76 -15.7708 280.228 -15.4902L280.266 -15.483C292.23 -13.1972 304.457 -10.861 316.249 -9.09356C315.835 -17.8672 316.031 -26.4967 317.082 -35L320.447 -35C319.35 -26.3606 319.16 -17.5743 319.615 -8.60322C321.978 -8.26941 324.321 -7.96119 326.637 -7.68366C336.725 -6.47497 346.551 -6.08214 356.196 -6.28081C356.618 -15.1687 357.796 -24.6561 359.966 -35H363.38C361.177 -24.6727 359.977 -15.222 359.544 -6.37341C380.308 -7.09296 400.269 -10.4559 420.238 -14.1947C418.981 -21.9151 417.928 -28.8645 417.242 -35L420.603 -35C421.278 -29.0595 422.304 -22.3158 423.528 -14.8136C425.478 -15.1821 427.43 -15.5531 429.382 -15.9243L429.385 -15.9249C446.438 -19.1669 463.592 -22.4281 481.287 -24.2526C481.467 -27.8539 481.723 -31.4365 482.063 -35L485.419 -35C485.084 -31.5459 484.83 -28.073 484.647 -24.5809C495.036 -25.5383 505.619 -25.9729 516.484 -25.5936V-22.2516C505.571 -22.6387 494.944 -22.1929 484.494 -21.2132C483.957 -7.47769 484.482 6.55412 485.542 20.9036C495.461 18.6424 505.709 17.104 516.484 16.8814V20.2219ZM322.217 35.7829C323.351 41.7637 324.568 47.8164 325.805 53.9457L326.034 55.08C328.947 69.5148 331.952 84.4016 334.236 99.844C314.493 92.7945 296.997 87.9011 281.366 84.5841C279.299 63.0137 274.848 46.9539 270.855 32.5491C270.112 29.8672 269.384 27.2426 268.691 24.6507C286.696 27.0899 305.055 30.6679 322.217 35.7829ZM325.829 36.888C331.441 38.6502 336.911 40.5833 342.182 42.7015L342.226 42.7194L342.272 42.7347C349.145 45.0479 355.774 46.6901 362.198 47.7711C363.462 53.0606 364.837 58.3408 366.239 63.7021L366.497 64.6907C370.454 79.8149 374.597 95.6531 377.102 114.281C365.702 113.023 353.4 109.264 339.59 101.807L339.485 101.75L339.374 101.709C338.848 101.515 338.322 101.322 337.799 101.131C335.476 84.9761 332.347 69.477 329.335 54.5526L329.079 53.285C327.96 47.7384 326.862 42.275 325.829 36.888ZM343.382 39.5844C349.572 41.6651 355.557 43.1881 361.372 44.2367C357.984 29.4047 355.608 14.3414 356.072 -2.93824C346.349 -2.7459 336.428 -3.14664 326.24 -4.36738C324.119 -4.62149 321.977 -4.90106 319.818 -5.20218C320.661 7.19822 322.659 19.9572 325.127 33.1736C331.401 35.0961 337.511 37.2266 343.382 39.5844ZM429.013 41.7124C409.277 47.5435 388.825 51.4978 365.766 48.3172C366.932 53.1288 368.187 57.9515 369.47 62.857L369.733 63.8624C373.754 79.2332 377.991 95.4318 380.512 114.586C381.452 114.65 382.386 114.698 383.314 114.729C396.457 115.176 408.594 112.423 420.765 108.313C425.32 106.774 429.828 105.066 434.375 103.275C433.544 80.8363 431.47 60.2407 429.013 41.7124ZM428.562 38.3625C408.545 44.3116 388.068 48.2744 364.936 44.8238C361.412 29.6793 358.926 14.4735 359.415 -3.02766C380.528 -3.73794 400.74 -7.1465 420.779 -10.898C421.222 -8.2198 421.685 -5.45447 422.163 -2.60367L422.168 -2.57389C424.202 9.56477 426.495 23.2525 428.562 38.3625ZM432.256 40.7364C432.835 40.5588 433.415 40.3799 433.994 40.1997C439.488 38.4894 444.926 36.6728 450.357 34.8588C460.987 31.3081 471.587 27.7676 482.511 25.0551C483.496 37.384 484.834 49.9054 486.191 62.6125L486.191 62.6152C486.385 64.4253 486.578 66.2392 486.771 68.0569C487.366 73.654 487.956 79.2886 488.514 84.9613C477.697 87.133 467.746 90.3369 458.305 93.8404C452.717 95.9141 447.368 98.0668 442.133 100.174L442.132 100.174L442.13 100.175L442.129 100.176L442.117 100.181C440.623 100.782 439.139 101.379 437.661 101.97C436.789 79.6475 434.706 59.1541 432.256 40.7364ZM449.079 31.7588C459.926 28.1328 470.882 24.47 482.251 21.6827C481.171 7.22428 480.62 -6.967 481.139 -20.8801C463.785 -19.0624 446.888 -15.8512 429.942 -12.6307C427.986 -12.2589 426.028 -11.8869 424.07 -11.5169C424.503 -8.89779 424.957 -6.19214 425.424 -3.4017L425.425 -3.39614C427.447 8.66078 429.733 22.3005 431.802 37.3817C432.202 37.2587 432.601 37.135 433.001 37.0107C438.358 35.3431 443.705 33.5555 449.079 31.7588ZM459.467 96.9717C468.714 93.5401 478.383 90.4269 488.838 88.3033C490.658 107.341 492.055 126.808 492.004 146.732C490.099 147.599 488.199 148.494 486.301 149.408C482.134 151.414 477.994 153.501 473.848 155.592C465.75 159.676 457.629 163.771 449.238 167.29C444.879 169.118 440.468 170.781 435.982 172.189C438.09 148.551 438.472 126.261 437.788 105.514C439.702 104.752 441.624 103.98 443.554 103.204C448.789 101.099 454.087 98.9684 459.467 96.9717ZM487.749 152.417C489.161 151.738 490.57 151.071 491.978 150.419C491.852 161.23 491.282 172.176 490.108 183.26L490.105 183.284L490.103 183.309C489.642 189.336 489.169 195.785 488.693 202.449C486.202 203.516 483.757 204.602 481.351 205.695C476.764 207.78 472.344 209.881 468.029 211.932L468.029 211.933L468.024 211.935L468.022 211.936C459.709 215.888 451.788 219.654 443.83 222.753C438.512 224.824 433.218 226.579 427.845 227.867C427.962 227.225 428.08 226.585 428.198 225.947C428.31 225.336 428.422 224.726 428.534 224.118C430.783 211.908 432.873 200.561 433.88 191.651C434.559 186.299 435.146 181.009 435.649 175.785C440.709 174.258 445.661 172.412 450.53 170.37C459.022 166.809 467.335 162.618 475.5 158.501C479.619 156.424 483.701 154.366 487.749 152.417ZM482.733 208.736C484.608 207.883 486.505 207.037 488.427 206.202C487.18 223.828 485.929 242.668 484.841 259.04L484.839 259.063L484.839 259.066C484.663 261.727 484.49 264.323 484.323 266.838C473.463 271.646 462.46 276.156 451.074 279.414C441.113 282.264 430.856 284.156 420.16 284.431C420.572 272.527 422.459 258.882 424.758 245.232C425.536 240.615 426.361 235.995 427.189 231.448C433.245 230.091 439.155 228.158 445.042 225.865C453.106 222.725 461.218 218.869 469.606 214.882L469.608 214.881L469.609 214.881L469.611 214.88L469.615 214.878L469.626 214.873C473.913 212.835 478.272 210.763 482.733 208.736ZM434.495 106.814C430.245 108.477 426.028 110.06 421.834 111.477C409.457 115.657 396.895 118.533 383.2 118.067C382.448 118.042 381.693 118.006 380.935 117.96C382.816 133.818 383.489 151.712 381.914 172.785C400.321 178.7 416.903 177.613 432.536 173.215C434.699 149.669 435.134 127.478 434.495 106.814ZM432.197 176.771C416.625 180.965 400.003 181.937 381.641 176.203C381.509 177.761 381.364 179.336 381.207 180.928L381.204 180.956L381.201 180.984C379.698 192.289 377.593 207.286 375.289 223.109C386.83 227.899 397.213 229.999 406.929 230.215C412.91 230.348 418.663 229.767 424.305 228.644C424.633 226.855 424.96 225.082 425.283 223.329L425.283 223.328C427.515 211.21 429.568 200.07 430.563 191.264L430.564 191.253L430.565 191.242C431.184 186.364 431.727 181.54 432.197 176.771ZM423.663 232.168C418.223 233.17 412.649 233.683 406.855 233.554C396.902 233.333 386.363 231.22 374.791 226.515C372.52 242.034 370.086 258.141 367.862 272.182C385.364 280.898 401.547 284.369 416.818 284.464C417.229 272.232 419.163 258.344 421.464 244.678C422.173 240.469 422.916 236.283 423.663 232.168ZM338.327 104.92C352.665 112.617 365.53 116.475 377.538 117.686C379.434 133.315 380.143 150.922 378.647 171.668C373.989 169.98 369.213 167.839 364.306 165.189L364.242 165.155L364.175 165.126C356.124 161.646 348.552 158.4 341.361 155.398C341.816 137.865 340.504 121.066 338.327 104.92ZM362.783 168.163C368.124 171.043 373.318 173.338 378.38 175.12C378.232 176.914 378.067 178.731 377.886 180.572C376.412 191.661 374.361 206.281 372.113 221.736C369.251 220.448 366.316 218.997 363.304 217.371L363.263 217.348L363.221 217.329C358.173 214.956 353.357 212.656 348.724 210.444L348.723 210.443C344.471 208.413 340.373 206.456 336.392 204.584C338.585 191.427 340.346 177.396 341.132 161.474C341.173 160.638 341.21 159.803 341.243 158.97C348.039 161.815 355.19 164.882 362.783 168.163ZM361.758 220.332C365.128 222.15 368.41 223.758 371.613 225.169C369.364 240.551 366.949 256.554 364.735 270.576C364.37 270.383 364.004 270.187 363.638 269.99L363.597 269.967L363.555 269.948C359.167 267.885 354.92 265.863 350.788 263.895L350.781 263.892L350.779 263.891C342.459 259.929 334.609 256.19 327.023 252.801C328.145 246.938 329.322 241.17 330.503 235.388L330.503 235.387L330.507 235.364L330.51 235.352C330.869 233.593 331.228 231.833 331.586 230.069C333.052 222.846 334.495 215.557 335.809 208.004C339.488 209.738 343.279 211.547 347.212 213.425C351.846 215.637 356.678 217.944 361.758 220.332ZM334.773 103.586C314.906 96.4153 297.337 91.4402 281.675 88.0656C281.889 90.6881 282.067 93.3905 282.205 96.1794L282.268 97.4441L282.268 97.4449C282.748 107.118 283.376 119.792 283.526 135.111C300.251 139.184 317.632 145.579 338.052 154.023C338.421 136.522 337.023 119.748 334.773 103.586ZM337.952 157.598C317.41 149.073 300.102 142.656 283.551 138.556C283.615 152.055 283.291 167.487 282.179 184.627C299.386 188.167 315.189 194.706 333.25 203.113C335.356 190.316 337.036 176.704 337.796 161.31C337.857 160.069 337.909 158.831 337.952 157.598ZM332.674 206.533C314.509 198.051 298.917 191.536 281.952 187.991C280.904 202.958 279.252 219.183 276.739 236.52L276.935 236.551L277.098 236.576C292.948 239.059 307.883 244.406 323.888 251.414C324.97 245.791 326.099 240.262 327.226 234.737L327.227 234.735L327.228 234.73C327.59 232.955 327.952 231.181 328.313 229.405C329.835 221.907 331.327 214.359 332.674 206.533ZM316.44 -5.68839C304.354 -7.47989 291.825 -9.87388 279.655 -12.1993C278.168 -12.4835 276.686 -12.7666 275.211 -13.0474C271.089 -13.8324 267.022 -14.5995 263.039 -15.323C262.62 -1.91179 264.764 9.4235 267.775 21.1584C285.795 23.5457 304.221 27.06 321.528 32.0989C319.15 19.1856 317.232 6.606 316.44 -5.68839ZM265.424 25.3634C265.319 24.9684 265.214 24.5738 265.11 24.1798C245.403 21.6659 226.246 20.4928 209.694 20.1336C210.015 22.4967 210.357 24.7929 210.713 27.0543C211.303 30.8037 211.934 34.4692 212.574 38.1922L212.574 38.193C214.55 49.6763 216.619 61.7061 217.882 78.4276C221.864 78.3163 226.02 78.2943 230.368 78.3934C244.059 78.7056 259.705 80.2097 277.942 83.8764C275.866 63.1463 271.565 47.6229 267.643 33.4679L267.643 33.4667C266.883 30.7236 266.137 28.0318 265.424 25.3634ZM230.292 81.7326C244.022 82.0456 259.788 83.5747 278.264 87.3496C278.512 90.2448 278.715 93.2398 278.869 96.3445L278.931 97.602C279.402 107.081 280.015 119.433 280.177 134.324C276.382 133.467 272.612 132.731 268.84 132.119C252.886 129.534 236.924 129.184 218.812 131.262C219.305 114.492 219.196 97.9484 218.118 81.759C221.992 81.6544 226.041 81.6357 230.292 81.7326ZM268.306 135.416C272.261 136.058 276.217 136.838 280.206 137.756C280.287 151.274 279.979 166.762 278.874 183.988C260.87 180.726 241.161 180.749 215.649 185.165C216.998 168.192 218.136 151.307 218.704 134.636C236.766 132.525 252.559 132.864 268.306 135.416ZM215.373 188.604C241.192 184.058 260.823 184.062 278.649 187.342C277.608 202.354 275.956 218.64 273.432 236.056C254.962 233.704 235.122 235.282 210.81 242.477C211.542 233.427 212.326 224.366 213.11 215.31L213.112 215.288L213.112 215.284C213.577 209.912 214.042 204.541 214.496 199.175C214.794 195.649 215.087 192.125 215.373 188.604ZM229.29 -20.0349C238.271 -19.4472 248.629 -17.8844 259.717 -15.9193C259.235 -2.38363 261.285 9.06628 264.212 20.7003C244.631 18.2579 225.654 17.1241 209.258 16.7838C207.973 6.40316 207.117 -5.46349 207.202 -21.2913C214.172 -20.9546 221.545 -20.5418 229.29 -20.0349Z" fill="#1B4CE7"/>
<rect x="213" y="-2" width="326" height="266" fill="url(#paint0_linear_1378_96248)"/>
</g>
</g>
<defs>
<linearGradient id="paint0_linear_1378_96248" x1="213" y1="131" x2="539" y2="131" gradientUnits="userSpaceOnUse">
<stop stop-color="#3968FC"/>
<stop offset="1" stop-color="#3968FC" stop-opacity="0"/>
</linearGradient>
<clipPath id="clip0_1378_96248">
<rect width="486" height="250" rx="8" fill="white"/>
</clipPath>
<clipPath id="clip1_1378_96248">
<rect width="273" height="264" fill="white" transform="translate(213)"/>
</clipPath>
</defs>
</svg>
