<svg width="485" height="250" viewBox="0 0 485 250" fill="none" xmlns="http://www.w3.org/2000/svg">
<g clip-path="url(#clip0_1605_133005)">
<rect width="485" height="250" rx="8" fill="#3968FC"/>
<path d="M261.319 248.942C249.184 248.942 245.544 241.393 241.351 226.924C241.089 225.924 241.026 224.882 241.167 223.858C241.308 222.834 241.65 221.848 242.172 220.956C242.722 219.836 243.69 218.978 244.868 218.568C249.937 217.301 255.136 217.208 260.167 217.116C267.079 216.993 273.622 216.878 280.042 214.044C282.171 212.984 284.224 211.778 286.186 210.435C292.054 206.664 298.697 202.394 304.688 204.391C308.72 205.735 310.947 207.701 311.315 210.235C312.168 216.11 302.437 222.907 296.001 227.408C294.857 228.176 293.866 228.897 293.098 229.473C290.572 231.488 288.174 233.658 285.918 235.971C280.411 241.347 274.16 247.491 266.81 248.527C264.992 248.795 263.156 248.934 261.319 248.942ZM245.436 220.803C244.884 221.083 244.44 221.54 244.177 222.101C243.442 223.365 243.227 224.866 243.578 226.286C248.247 242.468 251.442 248.389 266.526 246.254C273.13 245.317 278.814 239.734 284.343 234.335C286.67 231.949 289.146 229.712 291.754 227.638C292.522 227.039 293.559 226.34 294.719 225.526C299.964 221.863 309.718 215.043 309.073 210.573C308.835 208.968 307.13 207.632 303.996 206.587C299.05 204.936 292.899 208.891 287.469 212.378C285.405 213.793 283.242 215.055 280.995 216.156C274.144 219.228 267.071 219.328 260.259 219.451C255.328 219.505 250.252 219.628 245.436 220.803Z" fill="#1B4CE7"/>
<path d="M465.53 98.2146C462.217 98.1958 458.993 97.1374 456.314 95.1886C446.33 88.1461 442.152 71.1579 441.345 63.1553C440.232 51.9963 444.525 43.0568 448.672 34.4245C450.915 29.755 453.226 24.932 454.709 19.7557C455.953 15.4088 456.076 9.84846 456.245 3.96558C456.559 -9.62801 456.92 -25.0341 471.804 -29.9954C475.107 -31.1013 476.412 -30.4485 477.71 -29.4962C477.871 -29.381 478.033 -29.2581 478.209 -29.1429C478.286 -29.096 478.358 -29.042 478.424 -28.9816L479.868 -27.5071C479.921 -27.4589 479.967 -27.4048 480.007 -27.3458C481.903 -24.5272 481.089 -18.9439 480.137 -16.0792C476.128 -4.06002 472.035 10.3016 472.035 25.6616C472.035 32.9729 475.36 38.6331 478.885 44.6312C484.561 54.3003 490.997 65.2597 483.125 84.9512C480.39 91.7864 475.806 96.187 469.877 97.6693C468.456 98.0291 466.996 98.2123 465.53 98.2146ZM474.646 -28.2751C473.902 -28.2312 473.17 -28.0759 472.472 -27.8143C459.125 -23.3599 458.802 -9.4437 458.487 4.01935C458.349 10.0558 458.218 15.7544 456.89 20.3931C455.354 25.7691 452.996 30.6689 450.746 35.4152C446.552 44.155 442.59 52.4034 443.642 62.925C444.533 71.803 449.018 87.2168 457.635 93.2993C459.292 94.5056 461.2 95.3238 463.217 95.6934C465.233 96.0629 467.307 95.9744 469.285 95.4344C475.836 93.7985 479.269 88.3611 480.951 84.091C488.408 65.4517 482.541 55.46 476.865 45.7985C473.34 39.8005 469.7 33.6027 469.7 25.6616C469.7 9.97134 473.855 -4.61298 477.918 -16.8088C478.793 -19.4277 479.331 -24.0203 478.117 -25.9711L476.842 -27.269C476.666 -27.3842 476.497 -27.5071 476.328 -27.6299C475.865 -28.0431 475.266 -28.2725 474.646 -28.2751Z" fill="#1B4CE7"/>
<path d="M257.817 146.276C257.336 146.278 256.856 146.244 256.38 146.176C252.786 145.662 250.236 143.242 248.823 138.98C247.41 134.718 249.914 130.632 252.341 126.692C253.877 124.219 255.298 121.877 255.658 119.696C258.853 100.496 247.702 87.9771 222.504 82.3784L221.459 82.148C217.727 81.3262 213.872 80.4814 210.546 78.5614C210.307 78.4217 210.088 78.2513 209.893 78.0546C209.454 77.6307 209.15 77.0855 209.022 76.4884C208.893 75.8913 208.946 75.2695 209.173 74.7025C209.399 74.1353 209.79 73.6487 210.294 73.3046C210.799 72.9605 211.395 72.7746 212.005 72.7707C217.658 72.6248 222.519 72.2101 226.812 71.8491C241.013 70.6587 251.266 69.7986 272.954 79.437C287.315 85.819 292.154 97.1701 288.145 115.164C286.914 120.77 284.648 126.096 281.463 130.87C278.353 135.347 266.779 146.276 257.817 146.276ZM239.53 73.4158C235.498 73.4158 231.49 73.7538 227.012 74.1301C222.688 74.4987 217.796 74.8981 212.067 75.0593C211.906 75.0493 211.746 75.0902 211.609 75.1762C211.473 75.2622 211.367 75.389 211.307 75.5385C211.246 75.6881 211.235 75.8529 211.273 76.0095C211.312 76.1661 211.399 76.3066 211.522 76.411C211.575 76.4636 211.634 76.51 211.698 76.5493C214.716 78.2926 218.395 79.099 221.951 79.8824L223.003 80.1128C249.614 86.0264 261.403 99.4664 257.932 120.049C257.494 122.675 255.874 125.31 254.307 127.867C252.049 131.53 249.922 134.994 251.004 138.235C252.141 141.645 254.007 143.488 256.711 143.88C264.345 144.978 276.348 134.18 279.566 129.534C282.568 124.995 284.713 119.946 285.895 114.634C289.666 97.6693 285.388 87.4472 272.017 81.5105C257.471 75.0593 248.432 73.4158 239.53 73.4158Z" fill="#1B4CE7"/>
<path d="M223.932 -58.0504C222.289 -55.2779 220.584 -52.4056 220.584 -48.8344C220.584 -46.0312 221.759 -43.5199 222.888 -41.0853C223.833 -39.2994 224.528 -37.3924 224.954 -35.4175C225.837 -30.0415 222.65 -25.4335 219.87 -22.4613C211.376 -13.5141 193.827 -6.80178 182.314 -8.09202C176.516 -8.74482 172.699 -10.6879 170.648 -14.021C166.64 -20.5259 170.111 -31.3394 173.674 -40.9624C174.212 -42.4063 174.734 -43.9883 175.287 -45.6626C177.215 -51.4763 179.396 -58.0735 182.967 -61.7291C183.351 -62.1131 183.812 -62.5586 184.334 -63.0578C185.432 -64.1253 186.761 -65.4079 188.074 -66.8363H184.933C184.165 -66.0683 183.397 -65.3464 182.775 -64.7167C182.245 -64.2021 181.769 -63.7413 181.377 -63.3496C177.384 -59.3099 175.111 -52.444 173.106 -46.3845C172.561 -44.7256 172.046 -43.1666 171.524 -41.7765C167.768 -31.6312 164.12 -20.2034 168.728 -12.8152C171.148 -8.89074 175.64 -6.53297 182.107 -5.80338C183.155 -5.6876 184.209 -5.63119 185.264 -5.63441C197.229 -5.63441 213.411 -12.2699 221.59 -20.8792C226.129 -25.6562 228.095 -30.8095 227.273 -35.7861C226.815 -37.971 226.057 -40.0823 225.023 -42.0607C223.948 -44.3647 222.926 -46.5381 222.926 -48.8344C222.926 -51.7759 224.393 -54.2104 225.952 -56.8754C227.634 -59.717 229.493 -62.8735 229.354 -66.8594H227.05C227.166 -63.5263 225.56 -60.8536 223.932 -58.0504Z" fill="#1B4CE7"/>
<path d="M140.405 -57.9199C143.139 -55.9231 146.733 -55.4699 151.08 -56.5682C154.751 -57.4975 158.852 -61.6831 163.506 -66.8363H160.38C156.656 -62.789 153.215 -59.4866 150.519 -58.8031C146.81 -57.8661 143.953 -58.1887 141.764 -59.7784C139.736 -61.2683 138.416 -63.7643 137.517 -66.8363H135.098C136.112 -63.0731 137.724 -59.8783 140.405 -57.9199Z" fill="#1B4CE7"/>
<path d="M247.065 -49.8866C246.358 -45.2018 245.252 -39.1346 242.933 -33.7586C238.914 -24.6553 233.694 -16.1315 227.411 -8.41458C224.339 -4.6437 220.092 -1.34898 215.961 1.8459C214.832 2.71375 213.726 3.56622 212.673 4.4187C208.941 7.44398 204.655 9.71342 200.055 11.1003C174.873 18.7112 163.299 -1.66386 152.109 -21.3707C143.546 -36.4389 135.459 -50.7083 121.742 -52.3903C114.83 -53.2504 107.972 -52.444 101.145 -50.9311V-48.5656C107.926 -50.1016 114.738 -50.9464 121.458 -50.1016C134.03 -48.5656 141.841 -34.7877 150.105 -20.2341C159.589 -3.53009 170.157 15.0939 189.864 15.0939C193.553 15.0571 197.217 14.4801 200.739 13.3813C205.623 11.915 210.173 9.50688 214.133 6.29263C215.177 5.45551 216.275 4.6107 217.389 3.74287C221.628 0.471184 226.006 -2.90802 229.224 -6.88626C235.641 -14.7829 240.972 -23.5029 245.075 -32.8139C247.502 -38.4664 248.639 -44.7256 249.361 -49.5487C250.336 -55.2652 250.398 -61.1003 249.545 -66.8363H247.241C248.055 -62.1285 248.086 -56.5759 247.065 -49.8866Z" fill="#1B4CE7"/>
<path d="M485.145 175.852C482.277 175.633 479.399 175.598 476.528 175.744C461.045 176.658 447.144 184.192 433.696 191.442C423.989 196.688 413.943 202.117 403.506 204.897C377.786 211.763 357.173 203.707 343.909 181.596C339.693 174.577 336.767 169.04 337.45 161.559C338.426 150.807 342.335 141.591 346.474 131.876C348.533 127.038 350.66 122.03 352.396 116.816C354.784 109.642 355.145 102.769 355.529 95.4882C355.652 93.1842 355.775 90.7266 355.982 88.315C356.336 84.0066 357.703 79.6443 359.054 75.428C360.149 72.1708 361.041 68.8493 361.727 65.4824C363.839 53.8856 358.033 33.3032 350 23.9413C339.862 12.1064 325.178 6.99918 306.362 8.7579C287.239 10.5473 269.866 18.8725 261.211 23.6801C248.347 30.8302 225.576 41.3441 217.673 31.4677C217.19 30.8792 216.838 30.195 216.639 29.4602C216.441 28.7254 216.4 27.9568 216.521 27.2053C217.189 21.9061 223.809 15.6853 227.611 12.8129C230.576 10.5934 233.755 8.38158 236.827 6.24654C251.849 -4.18289 267.378 -14.9733 270.412 -34.6955C272.309 -47.045 270.988 -56.8293 267.155 -66.8056H264.667C268.615 -56.8754 270.043 -47.237 268.131 -35.0488C265.22 -16.3327 250.137 -5.83409 235.483 4.32655C232.411 6.46927 229.193 8.69646 226.198 10.939C225.069 11.7915 215.154 19.387 214.202 26.8827C214.043 27.9406 214.108 29.0199 214.391 30.0515C214.674 31.083 215.169 32.0441 215.845 32.8731C220.069 38.157 227.987 39.1323 239.392 35.7685C246.081 33.7947 253.785 30.3925 262.302 25.6616C270.819 20.9307 287.838 12.7669 306.546 11.0235C324.571 9.3339 338.595 14.18 348.225 25.4081C355.752 34.1864 361.404 54.1928 359.431 65.037C358.759 68.3097 357.89 71.5387 356.827 74.7061C355.468 79.0453 354.062 83.5304 353.686 88.0923C353.479 90.5422 353.348 92.9845 353.225 95.3422C352.857 102.462 352.503 109.166 350.207 116.078C348.502 121.201 346.367 126.162 344.355 130.954C340.33 140.432 336.16 150.231 335.139 161.336C334.371 169.493 337.619 175.614 341.913 182.764C352.565 200.512 367.725 209.59 386.357 209.59C392.348 209.54 398.307 208.706 404.082 207.109C414.788 204.26 424.949 198.761 434.802 193.454C448.027 186.304 461.682 178.908 476.673 178.033C479.489 177.888 482.311 177.924 485.121 178.14L485.145 175.852Z" fill="#1B4CE7"/>
<path d="M485.145 137.697C473.051 141.744 461.333 146.837 450.124 152.919C446.146 155.157 442.323 157.658 438.681 160.407C434.741 163.241 430.67 166.175 426.323 168.348C412.546 175.26 387.555 175.26 375.989 164.984C360.26 150.999 364.845 133.804 369.276 117.169C370.966 110.84 373.8 102.968 376.81 94.628C387.148 65.9355 400.019 30.2235 385.888 9.0267C370.152 -14.5739 335.461 -13.2914 308.243 -4.2213C306.078 -3.49938 303.39 -2.28593 300.563 -0.995689C291.77 2.97487 279.751 8.42767 273.115 3.45102C271.126 1.96111 270.043 0.379028 269.797 -1.32594C269.321 -4.72049 272.155 -8.46833 274.889 -12.0779C275.964 -13.4911 276.978 -14.8351 277.815 -16.1791C278.937 -17.9685 280.119 -19.7733 281.348 -21.6856C289.22 -33.8431 298.152 -47.6133 296.516 -62.3896C296.344 -63.8911 296.059 -65.3776 295.664 -66.8363H293.275C293.723 -65.2936 294.041 -63.7163 294.227 -62.1208C295.763 -48.1893 287.077 -34.7877 279.413 -22.9528C278.169 -21.0328 276.993 -19.2203 275.865 -17.4155C275.097 -16.156 274.09 -14.8581 273.054 -13.4757C270.028 -9.48209 266.91 -5.35025 267.516 -1.00337C267.847 1.30063 269.267 3.44334 271.733 5.29422C279.413 11.0849 291.701 5.54766 301.5 1.10094C304.288 -0.158577 306.915 -1.34898 308.965 -2.0325C335.377 -10.8338 368.954 -12.2162 383.968 10.3093C397.454 30.5384 384.805 65.6437 374.637 93.8446C371.619 102.231 368.762 110.157 367.049 116.577C362.441 133.88 357.664 151.783 374.46 166.705C380.297 171.896 389.529 174.992 400.434 175.422C401.279 175.422 402.124 175.475 402.969 175.475C411.954 175.475 420.909 173.624 427.353 170.407C431.868 168.149 436.016 165.161 440.025 162.273C443.587 159.588 447.322 157.14 451.207 154.947C462.08 149.056 473.434 144.098 485.145 140.124V137.697Z" fill="#1B4CE7"/>
<path d="M485.145 -66.8363H484.96C484.96 -63.7643 483.225 -60.7691 479.853 -57.82C464.409 -44.3339 443.527 -46.6072 423.313 -48.8114C413.444 -49.8866 403.245 -51.0002 394.037 -50.1631C385.95 -49.3951 379.03 -45.6779 372.333 -42.0607C365.636 -38.4434 359.469 -35.0949 352.104 -34.2808C342.481 -33.2056 332.136 -34.0274 324.456 -36.4619C313.973 -39.7874 308.113 -45.8392 307.038 -54.4562C306.515 -58.6111 307.314 -62.6431 308.313 -66.8363H305.947C304.987 -62.7275 304.204 -58.5112 304.749 -54.1643C306.969 -36.2623 327.351 -31.5083 343.548 -31.5083C346.491 -31.5084 349.432 -31.6673 352.357 -31.9845C360.168 -32.8523 366.911 -36.5003 373.431 -40.0331C380.22 -43.7042 386.633 -47.1755 394.244 -47.8667C403.222 -48.6808 412.86 -47.6363 423.059 -46.5227C443.795 -44.2648 465.192 -41.9147 481.374 -56.092C482.816 -57.3205 484.084 -58.7388 485.145 -60.3083L485.145 -66.8363Z" fill="#1B4CE7"/>
<path d="M386.733 -66.8363C385.381 -66.3909 383.991 -65.9301 382.563 -65.4386C370.651 -61.4143 357.15 -56.8447 346.467 -63.2421C344.879 -64.1434 343.497 -65.3679 342.412 -66.8363H339.662C340.983 -64.4843 342.939 -62.5519 345.307 -61.2607C349.417 -58.8578 354.111 -57.6378 358.87 -57.7355C366.98 -57.7355 375.466 -60.6079 383.3 -63.2575C385.765 -64.0946 388.1 -64.8856 390.343 -65.5615C392.257 -66.1172 394.207 -66.5431 396.179 -66.8363H386.733Z" fill="#1B4CE7"/>
<path d="M485.145 -11.5403C485.052 -11.2331 484.945 -10.9183 484.853 -10.6034C481.95 -0.435051 482.387 10.9006 485.145 22.1365V-11.5403Z" fill="#1B4CE7"/>
<path d="M485.145 126.853L483.962 127.168C478.586 128.643 473.747 131.461 469.101 134.18C466.797 135.509 464.493 136.891 462.097 138.074C448.365 144.94 416.255 153.196 404.236 141.146C376.78 113.72 393.845 71.0734 406.302 39.9157C407.2 37.6117 408.345 35.4075 409.55 33.0037C411.931 28.3112 414.389 23.4574 415.034 18.3118C416.201 8.97295 408.575 3.71983 401.847 -0.957298C394.067 -6.3333 387.347 -10.9413 392.186 -20.6565C393.468 -23.2293 395.496 -25.6485 397.462 -27.9986C398.076 -28.7666 398.691 -29.4655 399.274 -30.1951C402.147 -33.7893 407.446 -32.9829 412.115 -32.2763C412.929 -32.1535 413.713 -32.0306 414.465 -31.9384C424.688 -30.6559 448.634 -26.0939 450.277 -11.3023C451.491 -0.419701 446.376 7.55982 440.969 16.0001C438.759 19.3302 436.724 22.7729 434.871 26.3144C433.151 29.7934 431.469 33.0037 429.849 36.0757C419.043 56.5121 411.908 70.0136 426.976 96.379C430.563 102.661 438.281 113.705 449.655 117.115C459.025 119.926 472.181 118.282 485.152 113.275V110.741C472.38 115.817 459.278 117.607 450.316 114.919C439.71 111.739 432.391 101.225 428.973 95.2424C414.535 69.9752 421.063 57.6104 431.884 37.1585C433.52 34.0865 435.209 30.8609 436.945 27.3973C438.751 23.9228 440.741 20.5466 442.905 17.2827C448.281 8.8347 453.856 0.171661 452.558 -11.5173C450.738 -27.9371 425.509 -32.837 414.75 -34.181C413.982 -34.2731 413.214 -34.396 412.446 -34.5112C407.423 -35.2792 401.164 -36.2315 397.454 -31.5928C396.886 -30.8786 396.287 -30.1643 395.68 -29.4347C393.53 -27.0625 391.661 -24.4493 390.112 -21.6472C384.375 -10.181 392.585 -4.50545 400.519 0.978065C407.308 5.67823 413.728 10.1096 412.73 18.0661C412.138 22.8123 409.773 27.4817 407.477 31.9976C406.302 34.3016 405.088 36.7208 404.144 39.0709C391.449 70.8123 374.061 114.273 402.608 142.805C407.553 147.758 415.372 149.617 423.973 149.617C437.966 149.617 454.025 144.686 463.141 140.14C465.584 138.919 467.972 137.521 470.276 136.169C474.792 133.52 479.492 130.793 484.584 129.395L485.16 129.234L485.145 126.853Z" fill="#1B4CE7"/>
<path d="M485.145 291.904C482.18 292.557 479.223 293.187 476.313 293.801C462.45 296.743 449.363 299.523 440.601 303.908C434.027 307.19 428.135 311.688 423.236 317.164H426.416C430.811 312.591 435.957 308.804 441.63 305.966C450.131 301.719 463.08 298.97 476.789 296.059C479.546 295.475 482.341 294.876 485.145 294.262V291.904Z" fill="#1B4CE7"/>
<path d="M337.819 308.946C335.17 295.706 321.906 291.904 310.171 288.556C301.385 286.037 293.083 283.664 290.917 277.758C289.12 272.881 291.47 265.669 298.106 255.716C301.14 251.038 305.387 247.272 310.394 244.818C316.968 241.531 322.789 236.662 328.181 229.927C329.87 227.822 331.061 225.15 332.213 222.569C334.954 216.425 337.589 210.558 346.643 210.558C348.004 210.566 349.363 210.679 350.706 210.896C357.618 211.955 361.212 215.242 365.029 218.721C370.828 224.013 376.826 229.473 394.267 226.578C412.054 223.614 431.131 215.104 448.027 207.601L451.007 206.272C454.559 204.606 458.011 202.734 461.344 200.666C466.866 197.386 472.58 193.984 479.008 192.709C481.074 192.295 483.14 191.987 485.152 191.78V189.476C482.956 189.699 480.744 190.021 478.524 190.467C471.735 191.818 465.852 195.32 460.162 198.7C456.905 200.723 453.533 202.554 450.062 204.183L447.075 205.512C430.355 212.961 411.394 221.409 393.891 224.32C377.571 227.047 372.233 222.185 366.588 217.032C362.687 213.476 358.655 209.805 351.067 208.63C336.89 206.441 333.288 214.52 330.116 221.648C329.161 224.078 327.91 226.381 326.391 228.506C321.207 234.972 315.639 239.642 309.372 242.775C304.023 245.418 299.48 249.447 296.217 254.441C289.043 265.193 286.678 272.873 288.775 278.556C291.347 285.553 300.195 288.087 309.557 290.768C321.169 294.093 333.18 297.534 335.554 309.399C336.064 311.962 336.405 314.556 336.575 317.164H338.879C338.706 314.404 338.352 311.659 337.819 308.946Z" fill="#1B4CE7"/>
<path d="M485.144 271.23C482.741 272.251 480.367 273.28 478.033 274.302C463.118 280.776 449.033 286.889 432.437 290.215C423.566 291.989 413.237 293.747 411.516 293.578C405.679 289.546 397.692 275.653 396.156 269.425C392.846 256.192 405.572 246.899 415.802 239.434C417.53 238.167 419.166 236.977 420.671 235.802C426.346 231.393 432.329 230.641 438.665 229.842C442.657 229.469 446.601 228.697 450.439 227.538C455.221 225.801 459.883 223.749 464.393 221.394C469.961 218.645 475.713 215.803 481.397 214.382C482.618 214.075 483.877 213.845 485.152 213.653V211.349C483.7 211.55 482.259 211.827 480.836 212.178C474.915 213.66 469.047 216.556 463.372 219.359C458.956 221.664 454.391 223.673 449.709 225.372C446.014 226.488 442.216 227.231 438.373 227.592C432.007 228.398 425.432 229.228 419.258 234.028C417.783 235.172 416.186 236.332 414.442 237.614C403.69 245.486 390.235 255.278 393.921 270.024C395.611 276.798 403.836 291.259 410.387 295.629C410.526 295.721 410.748 295.867 411.785 295.867C413.82 295.867 419.02 295.283 432.89 292.511C449.732 289.139 463.925 282.98 478.97 276.452L485.167 273.779L485.144 271.23Z" fill="#1B4CE7"/>
<path d="M485.145 254.794C482.357 255.862 479.6 256.968 476.865 258.058C465.445 262.666 453.626 267.39 441.092 268.526C432.529 269.294 427.376 268.296 426.945 265.761C426.032 260.385 442.252 248.259 451.821 245.863C460.976 243.559 470.691 240.963 479.722 237.353C481.082 236.808 482.948 236.132 485.145 235.387V232.983C482.303 233.928 480.076 234.727 478.87 235.21C469.961 238.774 460.338 241.354 451.26 243.658C442.183 245.962 423.39 258.596 424.68 266.176C425.379 270.316 431.016 271.153 435.777 271.153C438.02 271.153 440.063 270.968 441.299 270.853C454.171 269.686 466.144 264.878 477.726 260.232C480.176 259.249 482.649 258.258 485.145 257.29V254.794Z" fill="#1B4CE7"/>
<path d="M459.163 317.164H459.032C457.816 316.876 456.548 316.889 455.338 317.202L459.163 317.164Z" fill="#1B4CE7"/>
<path d="M485.145 310.513C482.608 312.012 480.616 314.284 479.461 316.995C479.44 317.05 479.422 317.106 479.408 317.164H481.911C482.685 315.656 483.791 314.343 485.145 313.324V310.513Z" fill="#1B4CE7"/>
<path d="M389.298 287.112C383.3 282.619 379.583 278.241 376.465 271.998C373.746 266.56 372.302 260.762 370.905 255.155C369.123 247.982 367.272 240.563 362.748 233.774C360.859 230.94 357.895 229.304 353.932 228.905C346.751 228.199 338.787 231.8 337.458 233.129C334.985 235.602 332.681 237.622 330.646 239.404C324.625 244.688 320.278 248.504 317.874 258.12C315.985 265.662 325.186 271.061 334.924 276.775C343.264 281.674 351.889 286.759 353.133 292.964C353.817 296.159 353.049 303.34 352.281 311.619C352.104 313.408 351.92 315.267 351.743 317.164H354.047C354.216 315.344 354.393 313.562 354.562 311.841C355.429 303.017 356.098 296.044 355.414 292.511C353.962 285.269 344.885 279.946 336.106 274.785C327.129 269.525 318.658 264.548 320.124 258.657C322.352 249.741 326.268 246.308 332.182 241.116C334.24 239.312 336.575 237.276 339.094 234.734C339.954 233.874 346.198 231.102 352.058 231.102C352.618 231.102 353.171 231.102 353.717 231.178C356.95 231.501 359.354 232.799 360.844 235.018C365.145 241.47 366.857 248.366 368.677 255.67C370.106 261.399 371.573 267.32 374.407 272.988C377.701 279.578 381.618 284.193 387.916 288.917C394.559 293.893 393.384 306.535 391.556 317.125H393.86C395.772 306.058 396.863 292.787 389.298 287.112Z" fill="#1B4CE7"/>
<path d="M327.098 186.465C317.168 179.845 302.023 188.769 287.377 197.34C279.128 202.186 271.333 206.756 265.504 207.816C250.052 210.627 236.021 209.843 219.724 207.816C216.344 207.393 212.489 205.919 208.419 204.36C201.238 201.61 193.827 198.776 187.306 200.95C179.995 203.384 177.991 217.846 176.385 229.458C175.617 234.742 174.957 239.742 173.936 241.838C173.505 242.33 171.04 243.635 168.667 244.91C157.431 250.893 134.053 263.342 125.843 285.453C123.056 292.956 120.567 302.28 126.112 307.817C133.024 314.729 147.24 307.971 155.734 303.939C157.116 303.278 158.314 302.71 159.29 302.295C177.384 294.538 202.582 287.104 219.831 295.729C228.479 300.053 237.203 308.585 243.701 317.179H246.611C239.83 307.825 230.414 298.448 220.86 293.671C215.039 290.76 208.403 289.577 201.461 289.577C186.869 289.577 170.94 294.792 158.384 300.176C157.37 300.606 156.156 301.189 154.743 301.857C146.794 305.628 133.493 311.941 127.74 306.189C123.132 301.581 125.436 293.133 128.001 286.259C135.912 264.94 158.745 252.782 169.75 246.93C174.112 244.626 175.518 243.858 175.978 242.906C177.177 240.502 177.868 235.525 178.666 229.765C180.11 219.359 182.084 205.105 188.036 203.123C193.765 201.211 200.793 203.891 207.589 206.503C211.806 208.115 215.776 209.636 219.432 210.097C235.952 212.155 250.152 212.946 265.919 210.097C272.147 208.968 280.112 204.291 288.544 199.345C301.923 191.488 317.091 182.579 325.815 188.393C333.011 193.193 327.674 203.492 324.141 210.304C323.772 211.011 323.427 211.679 323.12 212.293C318.558 221.417 305.11 238.129 295.233 242.514L293.859 243.121C284.351 247.314 268.446 254.334 266.879 265.316C264.79 279.908 278.061 290.314 292.108 301.304C298.605 306.381 305.164 311.534 310.202 317.179H313.274C307.952 310.766 300.648 305.052 293.536 299.515C280.027 288.955 267.271 278.979 269.168 265.677C270.558 255.954 286.325 248.996 294.796 245.264L296.178 244.649C306.661 239.987 320.362 222.999 325.185 213.353L326.192 211.395C329.863 204.268 336.007 192.41 327.098 186.465Z" fill="#1B4CE7"/>
<path d="M276.087 309.768C272.869 305.26 270.012 300.268 267.248 295.437C265.527 292.434 263.746 289.293 261.872 286.375C258.569 281.091 257.095 275.008 255.674 269.118C254.092 262.62 252.464 255.9 248.378 250.179C242.718 242.245 235.184 238.659 227.903 235.126C223.487 232.999 218.91 230.794 214.686 227.63C213.319 226.601 211.813 224.604 210.224 222.492C206.23 217.178 201.253 210.565 194.257 214.044C190.632 215.857 188.428 218.084 187.522 220.856C185.986 225.464 188.589 230.472 190.855 234.872C192.621 238.29 194.288 241.531 193.358 243.397C191.722 246.669 186.8 248.213 182.453 249.541C180.439 250.106 178.473 250.825 176.57 251.692C172.684 253.635 138.684 271.114 142.156 286.083C142.268 286.735 142.548 287.348 142.97 287.858C143.392 288.369 143.94 288.76 144.56 288.993C149.26 290.729 159.052 283.948 169.527 276.237C171.377 274.791 173.302 273.445 175.295 272.205C189.626 265.047 210.546 260.769 222.611 268.311C245.122 282.381 250.459 292.35 258.538 307.433C260.151 310.444 261.872 313.654 263.845 317.118H266.503C264.26 313.232 262.348 309.668 260.566 306.366C252.61 291.505 246.865 280.768 223.833 266.368C218.756 263.204 212.666 261.983 206.384 261.983C194.426 261.983 181.808 266.399 174.266 270.162C172.135 271.448 170.083 272.862 168.122 274.394C161.525 279.255 149.244 288.295 145.32 286.843C145.06 286.739 144.832 286.567 144.663 286.343C144.494 286.12 144.389 285.855 144.36 285.576C141.864 274.824 164.988 260.055 177.561 253.765C179.357 252.961 181.211 252.288 183.106 251.753C187.882 250.255 193.305 248.558 195.394 244.411C196.853 241.5 194.925 237.76 192.882 233.797C190.839 229.834 188.482 225.272 189.695 221.555C190.394 219.405 192.222 217.616 195.263 216.095C200.163 213.637 203.78 217.761 208.365 223.844C210.055 226.094 211.652 228.222 213.28 229.443C217.681 232.745 222.358 234.995 226.882 237.169C234.224 240.702 241.159 244.035 246.481 251.484C250.321 256.86 251.811 263.058 253.393 269.632C254.86 275.699 256.38 281.966 259.882 287.565C261.703 290.476 263.469 293.563 265.174 296.551C267.97 301.427 270.857 306.473 274.144 311.073C275.756 313.212 277.53 315.222 279.451 317.087L279.497 317.133H282.707C282.178 316.572 281.632 316.019 281.102 315.474C279.291 313.7 277.614 311.792 276.087 309.768Z" fill="#1B4CE7"/>
<path d="M163.522 314.691C160.328 315.048 157.206 315.882 154.259 317.164H162.262C162.746 317.087 163.23 317.018 163.706 316.987C168.193 316.656 172.7 316.715 177.177 317.164H190.786C181.885 314.906 172.683 314.071 163.522 314.691Z" fill="#1B4CE7"/>
<path d="M155.588 193.669C153.161 192.364 150.873 191.127 148.83 189.898C144.536 187.22 140.431 184.251 136.542 181.013C127.034 173.448 118.041 166.298 101.145 167.404V169.708C117.273 168.617 125.536 175.199 135.098 182.817C139.07 186.117 143.26 189.144 147.639 191.88C149.736 193.132 152.048 194.376 154.497 195.72C160.227 198.792 166.156 202.002 169.719 205.566C170.403 206.249 170.265 209.022 170.195 210.358C170.195 210.857 170.149 211.31 170.149 211.671C170.149 221.264 167.607 229.681 155.204 239.611C152.9 241.454 150.097 242.514 147.132 243.628C143.914 244.849 140.581 246.108 137.863 248.481C117.503 266.276 95.853 292.434 106.183 317.164H108.702C97.9881 293.432 119.354 267.72 139.422 250.194C141.818 248.09 144.798 246.961 147.985 245.763C150.988 244.626 154.129 243.459 156.679 241.385C166.171 233.79 172.492 225.833 172.492 211.648C172.492 211.318 172.492 210.88 172.538 210.45C172.653 208.146 172.791 205.32 171.386 203.914C167.546 200.113 161.471 196.841 155.588 193.669Z" fill="#1B4CE7"/>
<path d="M101.145 255.286V257.874C101.657 258.181 102.131 258.547 102.558 258.965C103.126 259.541 103.326 260.839 103.003 262.613C102.615 264.652 101.991 266.639 101.145 268.534V273.825C103.126 270.131 104.769 266.107 105.276 262.981C105.699 260.378 105.33 258.481 104.186 257.336C103.304 256.476 102.273 255.781 101.145 255.286Z" fill="#1B4CE7"/>
<path d="M126.573 203.561C125.037 200.965 123.455 198.277 120.352 196.419C115.806 193.692 109.055 192.149 101.152 191.98V194.284C108.11 194.453 114.73 195.72 119.177 198.385C121.773 199.921 123.14 202.225 124.592 204.728C125.4 206.175 126.311 207.561 127.318 208.876C133.093 216.095 135.152 221.932 133.462 226.232C130.221 234.296 114.446 236.662 101.206 238.421V240.725C115.13 238.874 131.865 236.416 135.62 227.07C137.709 221.87 135.62 215.442 129.177 207.409C128.218 206.19 127.348 204.904 126.573 203.561Z" fill="#1B4CE7"/>
<path d="M300.057 43.4024C298.459 42.811 296.985 42.1429 295.541 41.4977C292.054 39.9233 288.759 38.4257 284.313 38.0417C272.908 37.0049 258.969 39.1707 244.246 41.4593C218.687 45.4376 192.252 49.5387 173.16 38.6331C159.198 30.6536 152.347 16.6453 145.719 3.10542C139.268 -10.0658 133.185 -22.5074 121.143 -29.7419C115.545 -33.1058 108.502 -34.3499 101.175 -34.1503V-31.8463C107.511 -32.0075 114.4 -31.0783 119.999 -27.7605C131.473 -20.8485 137.417 -8.72945 143.707 4.12687C150.489 17.9509 157.531 32.3048 172.077 40.6376C191.876 51.9502 219.916 47.5496 244.661 43.7096C259.253 41.4056 273.077 39.2936 284.167 40.3073C288.229 40.676 291.355 42.0814 294.657 43.5637C296.124 44.2241 297.645 44.9077 299.304 45.5297C315.232 51.5048 324.118 57.2571 329.025 64.7758C334.463 73.1086 335.415 84.1832 332.097 100.695C330.362 109.351 326.937 116.178 323.312 123.405C320.825 128.136 318.618 133.008 316.699 137.997C315.506 141.492 314.499 145.048 313.681 148.649C311.853 156.068 309.964 163.733 305.002 169.385C290.541 185.92 268.968 195.336 242.618 196.626C220.177 197.717 195.002 192.671 173.559 182.802C165.657 179.192 158.13 174.316 150.873 169.569C141.081 163.195 131.012 156.606 119.577 152.812C114.201 151.015 107.964 150.446 101.145 151.091V153.395C107.749 152.75 113.732 153.28 118.87 154.993C129.998 158.702 139.975 165.207 149.59 171.497C156.94 176.274 164.505 181.228 172.569 184.945C192.636 194.124 214.415 198.966 236.481 199.153C238.581 199.153 240.657 199.102 242.71 198.999C269.697 197.686 291.862 187.994 306.715 170.975C312.045 164.892 314.003 156.944 315.893 149.264C316.691 145.742 317.675 142.266 318.842 138.849C320.728 133.935 322.901 129.134 325.347 124.472C328.88 117.422 332.543 110.142 334.332 101.179C337.765 84.0296 336.705 72.4251 330.915 63.547C325.723 55.5829 316.507 49.5617 300.057 43.4024Z" fill="#1B4CE7"/>
<path d="M265.274 59.1157C255.344 56.635 245.383 58.2094 235.744 59.7301C232.864 60.1832 229.892 60.6517 226.989 61.005C224.554 61.2968 222.105 61.604 219.647 61.9112C199.871 64.3918 179.427 66.9569 160.05 62.5563C144.444 59.0312 125.905 45.7832 121.881 29.755C120.821 25.5157 120.959 20.539 121.113 15.163C121.427 3.85806 121.788 -8.95986 108.548 -13.9288C106.171 -14.7721 103.667 -15.2008 101.145 -15.196V-12.892C103.396 -12.8953 105.63 -12.5081 107.749 -11.7477C119.446 -7.35473 119.139 3.55854 118.816 15.1323C118.67 20.3624 118.524 25.7614 119.661 30.3157C122.18 40.3841 129.468 47.9797 135.144 52.5877C142.371 58.4705 151.272 62.9173 159.543 64.7989C179.312 69.2917 199.963 66.7035 219.931 64.1998C222.389 63.8849 224.839 63.5854 227.258 63.2936C230.207 62.9403 233.202 62.4641 236.105 62.0033C245.513 60.5211 255.244 58.9851 264.713 61.3506C274.49 63.7928 284.581 70.1518 291.708 78.3617C299.534 87.3627 303.09 97.5617 301.692 107.123C299.55 122.153 291.071 135.294 276.487 146.168C250.375 165.622 211.975 172.127 187.475 168.502C176.409 166.881 166.079 161.659 156.08 156.652C152.324 154.755 148.4 152.812 144.56 151.053C138.531 148.342 133.155 143.373 127.456 138.135C119.577 130.785 111.405 123.29 101.145 121.938V124.288C110.622 125.701 118.371 132.844 125.92 139.756C131.496 144.901 137.271 150.223 143.638 153.088C147.478 154.801 151.318 156.752 155.043 158.641C165.203 163.771 175.702 169.078 187.168 170.775C212.136 174.469 251.312 167.841 277.9 148.012C292.776 136.914 301.8 122.883 304.012 107.438C305.463 97.2238 301.708 86.3566 293.452 76.8411C286.025 68.3317 275.481 61.6962 265.274 59.1157Z" fill="#1B4CE7"/>
<path d="M208.826 85.5809C203.949 83.6302 198.842 81.7409 193.919 79.9208C184.089 76.2728 173.874 72.5019 164.889 68.0245C162.032 66.596 158.284 66.7419 154.659 66.8878C152.612 67.0457 150.554 67.0072 148.515 66.7726C143.231 65.8894 136.757 62.2952 131.703 59.2693C122.794 53.8933 111.981 41.0062 110.061 29.4632C109.639 26.9518 109.416 24.2715 109.17 21.4376C108.471 13.0357 107.673 3.64302 101.145 -1.69457V1.51566C105.591 6.42319 106.252 14.1262 106.889 21.6449C107.135 24.5249 107.373 27.2437 107.803 29.8472C109.838 42.043 121.182 55.6443 130.536 61.2507C135.758 64.3841 142.478 68.1089 148.154 69.0536C150.353 69.3164 152.573 69.3652 154.782 69.1995C158.115 69.069 161.563 68.9307 163.89 70.0904C172.953 74.6216 183.205 78.4155 193.12 82.0865C198.035 83.9067 203.104 85.7883 207.973 87.7313C217.435 91.5176 233.686 104.912 231.013 117.015C229.17 125.325 222.058 131.108 216.421 134.487C209.528 138.514 201.952 141.234 194.073 142.513C173.421 145.692 140.85 128.282 117.073 115.579C112.204 112.976 107.611 110.526 103.717 108.575C102.849 108.137 101.989 107.715 101.145 107.3V109.873L102.681 110.641C106.521 112.576 111.129 115.026 115.975 117.614C138.047 129.411 167.592 145.201 188.858 145.201C190.716 145.208 192.573 145.072 194.41 144.794C208.05 142.697 229.639 133.704 233.233 117.514C236.251 103.959 219.217 89.7358 208.826 85.5809Z" fill="#1B4CE7"/>
<path d="M158.023 79.0837L156.487 78.6766L151.71 77.4017C138.116 73.7921 119.5 68.8539 110.238 60.9358C106.828 57.956 103.556 52.8181 101.145 47.5035V52.6568C103.349 56.6427 105.983 60.26 108.825 62.6408C118.463 70.8968 137.371 75.9195 151.18 79.5829C152.862 80.0283 154.459 80.4507 155.941 80.8577L157.477 81.2648C165.603 83.4305 172.622 85.3045 170.817 95.227C170.049 99.2437 167.615 102.761 163.667 105.403C157.715 109.389 148.638 111.117 141.587 109.604C130.428 107.262 119.577 98.3681 109.124 89.7589C106.436 87.5547 103.748 85.3736 101.145 83.3153V86.2491C103.295 87.9617 105.468 89.7435 107.665 91.5406C118.348 100.319 129.399 109.397 141.057 111.893C143.022 112.307 145.025 112.51 147.033 112.499C153.354 112.523 159.55 110.738 164.889 107.354C169.366 104.359 172.177 100.319 173.022 95.6725C175.226 83.6917 166.087 81.2264 158.023 79.0837Z" fill="#1B4CE7"/>
<rect x="101" width="326" height="250" fill="url(#paint0_linear_1605_133005)"/>
</g>
<defs>
<linearGradient id="paint0_linear_1605_133005" x1="101" y1="125" x2="427" y2="125" gradientUnits="userSpaceOnUse">
<stop stop-color="#3968FC"/>
<stop offset="1" stop-color="#3968FC" stop-opacity="0"/>
</linearGradient>
<clipPath id="clip0_1605_133005">
<rect width="485" height="250" rx="8" fill="white"/>
</clipPath>
</defs>
</svg>
