<svg width="485" height="250" viewBox="0 0 485 250" fill="none" xmlns="http://www.w3.org/2000/svg">
<g clip-path="url(#clip0_1378_96247)">
<rect width="485" height="250" rx="8" fill="#18D690"/>
<path fill-rule="evenodd" clip-rule="evenodd" d="M312.617 124.718C312.617 131.251 317.961 136.517 324.48 136.408L365.453 135.724C431.152 134.626 485 187.694 485 253.538L485 272.123C485 290.281 470.311 305 452.191 305C434.072 305 419.383 290.281 419.383 272.123L419.383 253.538C419.383 224.437 395.584 200.983 366.547 201.468L325.573 202.153C282.392 202.874 247 167.995 247 124.718C247 81.4418 282.391 46.5631 325.571 47.2834L366.546 47.9668C395.584 48.4512 419.383 24.9965 419.383 -4.10511L419.383 -22.1233C419.383 -40.2806 434.072 -55 452.191 -55C470.311 -55 485 -40.2806 485 -22.1233L485 -4.10511C485 61.7393 431.153 114.807 365.454 113.711L324.479 113.028C317.96 112.919 312.617 118.185 312.617 124.718Z" fill="#11A267"/>
</g>
<defs>
<clipPath id="clip0_1378_96247">
<rect width="485" height="250" rx="8" fill="white"/>
</clipPath>
</defs>
</svg>
