<svg width="485" height="250" viewBox="0 0 485 250" fill="none" xmlns="http://www.w3.org/2000/svg">
<g clip-path="url(#clip0_1378_96194)">
<rect width="485" height="250" rx="8" fill="#18D690"/>
<g clip-path="url(#clip1_1378_96194)">
<mask id="path-3-inside-1_1378_96194" fill="white">
<path fill-rule="evenodd" clip-rule="evenodd" d="M172.345 -93C184.246 -84.9403 193.969 -73.9087 200.45 -60.9708C206.931 -73.9087 216.654 -84.9403 228.555 -93H322.645C334.273 -85.1247 343.823 -74.412 350.3 -61.856C356.777 -74.412 366.327 -85.1247 377.955 -93H472.045C483.946 -84.9403 493.669 -73.9087 500.15 -60.9708C506.631 -73.9087 516.354 -84.9403 528.255 -93H575V-64.1441C574.899 -64.3394 574.799 -64.5351 574.7 -64.7313C566.561 -48.6425 553.396 -35.5275 537.271 -27.45C553.396 -19.3725 566.561 -6.25755 574.7 9.8313C574.799 9.6351 574.899 9.4398 575 9.2445V86.1558C574.899 85.9605 574.799 85.7652 574.7 85.569C566.71 101.362 553.878 114.29 538.156 122.4C553.878 130.51 566.71 143.438 574.7 159.231C574.799 159.035 574.899 158.84 575 158.645V235.556C574.899 235.361 574.799 235.165 574.7 234.969C566.561 251.057 553.396 264.172 537.271 272.25C553.396 280.327 566.561 293.442 574.7 309.531C574.799 309.335 574.899 309.14 575 308.944V357H528.255C531.146 355.042 533.265 353.26 536.397 351.668C520.78 343.493 508.053 330.549 500.15 314.771C492.171 330.699 479.277 343.739 463.456 351.9C466.427 353.432 469.294 355.137 472.045 357H377.955C380.706 355.137 383.574 353.432 386.544 351.9C371.018 343.891 358.31 331.183 350.3 315.656C342.213 331.334 329.335 344.137 313.603 352.132C316.415 353.604 320.032 355.231 322.645 357H228.555C231.446 355.042 233.565 353.26 236.697 351.668C221.08 343.493 208.354 330.549 200.45 314.771C192.471 330.699 179.577 343.739 163.756 351.9C166.727 353.432 169.594 355.137 172.345 357H125V308.944C133.161 293.123 146.2 280.229 162.129 272.25C146.2 264.271 133.161 251.377 125 235.556V158.645C133.009 143.118 145.717 130.41 161.244 122.4C145.717 114.391 133.009 101.683 125 86.1558V9.2445C133.161 -6.5766 146.2 -19.471 162.129 -27.45C146.2 -35.4291 133.161 -48.3234 125 -64.1441V-93H172.345ZM264.171 -88.4142C237.806 -83.8116 216.818 -63.5617 211.128 -37.5858C237.494 -42.1884 258.483 -62.4383 264.171 -88.4142ZM565.519 342.48C563.243 311.589 539.704 286.609 509.481 282.12C511.757 313.011 535.296 337.99 565.519 342.48ZM462.129 272.25C446.004 264.172 432.84 251.057 424.7 234.969C416.56 251.057 403.396 264.172 387.271 272.25C403.396 280.327 416.56 293.443 424.7 309.531C432.84 293.443 446.004 280.327 462.129 272.25ZM490.828 281.991C460.127 286.116 436.114 311.349 433.871 342.609C464.573 338.484 488.587 313.251 490.828 281.991ZM563.972 212.168C557.997 237.753 537.142 257.615 511.028 262.132C517.002 236.548 537.859 216.685 563.972 212.168ZM500.15 239.629C508.278 223.404 521.504 210.178 537.729 202.05C521.504 193.923 508.278 180.695 500.15 164.471C492.023 180.695 478.795 193.923 462.571 202.05C478.795 210.178 492.023 223.404 500.15 239.629ZM359.458 282.116C389.707 286.599 413.265 311.606 415.523 342.524C385.739 338.241 362.379 314.072 359.337 283.905C359.383 283.31 359.424 282.714 359.458 282.116ZM312.129 272.25C296.004 264.172 282.839 251.057 274.7 234.969C266.56 251.057 253.396 264.172 237.271 272.25C253.396 280.327 266.56 293.442 274.7 309.531C282.839 293.442 296.004 280.327 312.129 272.25ZM283.865 342.687C286.081 311.288 310.26 285.953 341.132 281.951C341.168 282.604 341.212 283.256 341.264 283.905C338.179 314.479 314.226 338.894 283.865 342.687ZM489.308 262.287C483.311 236.323 461.995 216.221 435.392 212.014C441.389 237.978 462.705 258.079 489.308 262.287ZM413.985 212.115C408.002 237.826 386.993 257.77 360.715 262.185C366.698 236.473 387.707 216.53 413.985 212.115ZM350.3 238.744C358.461 222.923 371.5 210.029 387.429 202.05C371.5 194.071 358.461 181.177 350.3 165.356C342.139 181.177 329.099 194.071 313.171 202.05C329.099 210.029 342.139 222.923 350.3 238.744ZM565.519 192.18C563.243 161.289 539.704 136.309 509.481 131.82C511.757 162.711 535.296 187.69 565.519 192.18ZM461.244 122.4C445.522 114.29 432.69 101.362 424.7 85.569C416.71 101.362 403.878 114.29 388.156 122.4C403.878 130.51 416.71 143.438 424.7 159.231C432.69 143.438 445.522 130.51 461.244 122.4ZM490.828 131.691C460.127 135.816 436.114 161.049 433.871 192.309C464.573 188.184 488.587 162.951 490.828 131.691ZM510.816 112.768C537.347 108.268 558.489 87.936 564.184 61.8324C537.654 66.3324 516.511 86.6634 510.816 112.768ZM500.15 89.3292C508.278 73.104 521.504 59.8776 537.729 51.7497C521.504 43.6227 508.278 30.3954 500.15 14.1711C492.023 30.3954 478.795 43.6227 462.571 51.7497C478.795 59.8776 492.023 73.104 500.15 89.3292ZM265.516 342.434C263.227 311.668 239.846 286.775 209.784 282.166C212.072 312.932 235.453 337.826 265.516 342.434ZM191.132 281.951C160.272 285.951 136.101 311.268 133.868 342.649C164.728 338.648 188.899 313.332 191.132 281.951ZM339.93 262.382C333.917 236.17 312.295 215.913 285.37 211.918C291.383 238.131 313.005 258.387 339.93 262.382ZM211.341 262.077C237.289 257.459 257.991 237.679 263.959 212.223C238.011 216.841 217.308 236.621 211.341 262.077ZM200.45 239.629C208.577 223.404 221.804 210.178 238.029 202.05C221.804 193.923 208.577 180.695 200.45 164.471C192.323 180.695 179.096 193.923 162.871 202.05C179.096 210.178 192.323 223.404 200.45 239.629ZM189.619 262.335C183.614 236.246 162.145 216.067 135.381 211.965C141.386 238.053 162.855 258.233 189.619 262.335ZM311.244 122.4C295.522 130.51 282.69 143.438 274.7 159.231C266.709 143.438 253.878 130.51 238.156 122.4C253.878 114.29 266.709 101.362 274.7 85.569C282.69 101.362 295.522 114.29 311.244 122.4ZM265.516 192.134C263.227 161.368 239.846 136.475 209.784 131.866C212.072 162.632 235.453 187.526 265.516 192.134ZM191.132 131.651C188.899 163.032 164.728 188.348 133.868 192.349C136.101 160.968 160.272 135.651 191.132 131.651ZM359.458 131.816C389.707 136.299 413.265 161.306 415.523 192.224C385.739 187.941 362.379 163.772 359.337 133.605C359.383 133.011 359.424 132.414 359.458 131.816ZM283.865 192.387C286.081 160.988 310.26 135.653 341.132 131.651C341.168 132.304 341.212 132.956 341.264 133.605C338.179 164.18 314.226 188.594 283.865 192.387ZM313.171 51.7497C329.099 59.7291 342.139 72.6234 350.3 88.4436C358.461 72.6234 371.5 59.7291 387.429 51.7497C371.5 43.7712 358.461 30.8769 350.3 15.0558C342.139 30.8769 329.099 43.7712 313.171 51.7497ZM340.136 113.012C334.412 86.2827 312.502 65.5557 285.164 61.5876C290.888 88.3176 312.798 109.044 340.136 113.012ZM211.128 112.714C237.495 108.111 258.483 87.8622 264.171 61.8855C237.806 66.4881 216.818 86.7381 211.128 112.714ZM200.45 89.3292C208.577 73.104 221.804 59.8776 238.029 51.7497C221.804 43.6227 208.577 30.3954 200.45 14.1711C192.323 30.3954 179.096 43.6227 162.871 51.7497C179.096 59.8776 192.323 73.104 200.45 89.3292ZM489.516 112.919C483.805 86.4366 462.202 65.8653 435.184 61.6812C440.895 88.1628 462.498 108.735 489.516 112.919ZM414.195 61.7802C387.501 66.1758 366.205 86.5887 360.505 112.82C387.199 108.424 408.495 88.0116 414.195 61.7802ZM189.826 112.967C162.648 108.89 140.891 88.2402 135.174 61.6335C162.352 65.7105 184.109 86.3601 189.826 112.967ZM565.446 41.8695C562.781 11.4243 539.445 -13.0947 509.554 -17.5694C512.219 12.876 535.556 37.3947 565.446 41.8695ZM462.129 -27.45C446.004 -35.5275 432.84 -48.6424 424.7 -64.7313C416.56 -48.6424 403.396 -35.5275 387.271 -27.45C403.396 -19.3724 416.56 -6.25755 424.7 9.8313C432.84 -6.25755 446.004 -19.3725 462.129 -27.45ZM490.757 -17.6992C460.388 -13.5855 436.579 11.1849 433.943 41.9991C464.312 37.8852 488.121 13.1154 490.757 -17.6992ZM191.061 -17.7397C160.533 -13.7485 136.567 11.1039 133.939 42.0396C164.467 38.0481 188.433 13.1964 191.061 -17.7397ZM209.858 -17.5231C212.534 12.7977 235.713 37.2309 265.442 41.8227C262.767 11.5026 239.588 -12.9306 209.858 -17.5231ZM237.271 -27.45C253.396 -19.3725 266.56 -6.25764 274.7 9.8313C282.839 -6.25764 296.004 -19.3725 312.129 -27.45C296.004 -35.5274 282.839 -48.6423 274.7 -64.7311C266.56 -48.6423 253.396 -35.5274 237.271 -27.45ZM359.402 -17.5919C389.38 -13.1754 412.799 11.3964 415.45 41.9145C385.7 37.6026 362.378 13.4475 359.337 -16.6954C359.36 -16.9937 359.382 -17.2926 359.402 -17.5919ZM283.936 42.0783C286.55 11.0823 310.586 -13.8153 341.186 -17.756C341.21 -17.4019 341.236 -17.0484 341.264 -16.6954C338.181 13.8561 314.263 38.2569 283.936 42.0783ZM340.136 -37.2878C312.798 -41.2561 290.888 -61.9828 285.164 -88.7122C312.502 -84.7439 334.412 -64.0173 340.136 -37.2878ZM510.816 -37.5322C537.347 -42.0321 558.489 -62.3638 564.184 -88.4678C537.654 -83.9679 516.511 -63.6362 510.816 -37.5322ZM489.516 -37.3808C483.805 -63.863 462.202 -84.4346 435.184 -88.6191C440.895 -62.1369 462.498 -41.5655 489.516 -37.3808ZM414.195 -88.5198C387.501 -84.1238 366.205 -63.7112 360.505 -37.4802C387.199 -41.8762 408.495 -62.2888 414.195 -88.5198ZM135.174 -88.6664C140.891 -62.0602 162.648 -41.4107 189.826 -37.3336C184.109 -63.9398 162.352 -84.5894 135.174 -88.6664Z"/>
</mask>
<path fill-rule="evenodd" clip-rule="evenodd" d="M172.345 -93C184.246 -84.9403 193.969 -73.9087 200.45 -60.9708C206.931 -73.9087 216.654 -84.9403 228.555 -93H322.645C334.273 -85.1247 343.823 -74.412 350.3 -61.856C356.777 -74.412 366.327 -85.1247 377.955 -93H472.045C483.946 -84.9403 493.669 -73.9087 500.15 -60.9708C506.631 -73.9087 516.354 -84.9403 528.255 -93H575V-64.1441C574.899 -64.3394 574.799 -64.5351 574.7 -64.7313C566.561 -48.6425 553.396 -35.5275 537.271 -27.45C553.396 -19.3725 566.561 -6.25755 574.7 9.8313C574.799 9.6351 574.899 9.4398 575 9.2445V86.1558C574.899 85.9605 574.799 85.7652 574.7 85.569C566.71 101.362 553.878 114.29 538.156 122.4C553.878 130.51 566.71 143.438 574.7 159.231C574.799 159.035 574.899 158.84 575 158.645V235.556C574.899 235.361 574.799 235.165 574.7 234.969C566.561 251.057 553.396 264.172 537.271 272.25C553.396 280.327 566.561 293.442 574.7 309.531C574.799 309.335 574.899 309.14 575 308.944V357H528.255C531.146 355.042 533.265 353.26 536.397 351.668C520.78 343.493 508.053 330.549 500.15 314.771C492.171 330.699 479.277 343.739 463.456 351.9C466.427 353.432 469.294 355.137 472.045 357H377.955C380.706 355.137 383.574 353.432 386.544 351.9C371.018 343.891 358.31 331.183 350.3 315.656C342.213 331.334 329.335 344.137 313.603 352.132C316.415 353.604 320.032 355.231 322.645 357H228.555C231.446 355.042 233.565 353.26 236.697 351.668C221.08 343.493 208.354 330.549 200.45 314.771C192.471 330.699 179.577 343.739 163.756 351.9C166.727 353.432 169.594 355.137 172.345 357H125V308.944C133.161 293.123 146.2 280.229 162.129 272.25C146.2 264.271 133.161 251.377 125 235.556V158.645C133.009 143.118 145.717 130.41 161.244 122.4C145.717 114.391 133.009 101.683 125 86.1558V9.2445C133.161 -6.5766 146.2 -19.471 162.129 -27.45C146.2 -35.4291 133.161 -48.3234 125 -64.1441V-93H172.345ZM264.171 -88.4142C237.806 -83.8116 216.818 -63.5617 211.128 -37.5858C237.494 -42.1884 258.483 -62.4383 264.171 -88.4142ZM565.519 342.48C563.243 311.589 539.704 286.609 509.481 282.12C511.757 313.011 535.296 337.99 565.519 342.48ZM462.129 272.25C446.004 264.172 432.84 251.057 424.7 234.969C416.56 251.057 403.396 264.172 387.271 272.25C403.396 280.327 416.56 293.443 424.7 309.531C432.84 293.443 446.004 280.327 462.129 272.25ZM490.828 281.991C460.127 286.116 436.114 311.349 433.871 342.609C464.573 338.484 488.587 313.251 490.828 281.991ZM563.972 212.168C557.997 237.753 537.142 257.615 511.028 262.132C517.002 236.548 537.859 216.685 563.972 212.168ZM500.15 239.629C508.278 223.404 521.504 210.178 537.729 202.05C521.504 193.923 508.278 180.695 500.15 164.471C492.023 180.695 478.795 193.923 462.571 202.05C478.795 210.178 492.023 223.404 500.15 239.629ZM359.458 282.116C389.707 286.599 413.265 311.606 415.523 342.524C385.739 338.241 362.379 314.072 359.337 283.905C359.383 283.31 359.424 282.714 359.458 282.116ZM312.129 272.25C296.004 264.172 282.839 251.057 274.7 234.969C266.56 251.057 253.396 264.172 237.271 272.25C253.396 280.327 266.56 293.442 274.7 309.531C282.839 293.442 296.004 280.327 312.129 272.25ZM283.865 342.687C286.081 311.288 310.26 285.953 341.132 281.951C341.168 282.604 341.212 283.256 341.264 283.905C338.179 314.479 314.226 338.894 283.865 342.687ZM489.308 262.287C483.311 236.323 461.995 216.221 435.392 212.014C441.389 237.978 462.705 258.079 489.308 262.287ZM413.985 212.115C408.002 237.826 386.993 257.77 360.715 262.185C366.698 236.473 387.707 216.53 413.985 212.115ZM350.3 238.744C358.461 222.923 371.5 210.029 387.429 202.05C371.5 194.071 358.461 181.177 350.3 165.356C342.139 181.177 329.099 194.071 313.171 202.05C329.099 210.029 342.139 222.923 350.3 238.744ZM565.519 192.18C563.243 161.289 539.704 136.309 509.481 131.82C511.757 162.711 535.296 187.69 565.519 192.18ZM461.244 122.4C445.522 114.29 432.69 101.362 424.7 85.569C416.71 101.362 403.878 114.29 388.156 122.4C403.878 130.51 416.71 143.438 424.7 159.231C432.69 143.438 445.522 130.51 461.244 122.4ZM490.828 131.691C460.127 135.816 436.114 161.049 433.871 192.309C464.573 188.184 488.587 162.951 490.828 131.691ZM510.816 112.768C537.347 108.268 558.489 87.936 564.184 61.8324C537.654 66.3324 516.511 86.6634 510.816 112.768ZM500.15 89.3292C508.278 73.104 521.504 59.8776 537.729 51.7497C521.504 43.6227 508.278 30.3954 500.15 14.1711C492.023 30.3954 478.795 43.6227 462.571 51.7497C478.795 59.8776 492.023 73.104 500.15 89.3292ZM265.516 342.434C263.227 311.668 239.846 286.775 209.784 282.166C212.072 312.932 235.453 337.826 265.516 342.434ZM191.132 281.951C160.272 285.951 136.101 311.268 133.868 342.649C164.728 338.648 188.899 313.332 191.132 281.951ZM339.93 262.382C333.917 236.17 312.295 215.913 285.37 211.918C291.383 238.131 313.005 258.387 339.93 262.382ZM211.341 262.077C237.289 257.459 257.991 237.679 263.959 212.223C238.011 216.841 217.308 236.621 211.341 262.077ZM200.45 239.629C208.577 223.404 221.804 210.178 238.029 202.05C221.804 193.923 208.577 180.695 200.45 164.471C192.323 180.695 179.096 193.923 162.871 202.05C179.096 210.178 192.323 223.404 200.45 239.629ZM189.619 262.335C183.614 236.246 162.145 216.067 135.381 211.965C141.386 238.053 162.855 258.233 189.619 262.335ZM311.244 122.4C295.522 130.51 282.69 143.438 274.7 159.231C266.709 143.438 253.878 130.51 238.156 122.4C253.878 114.29 266.709 101.362 274.7 85.569C282.69 101.362 295.522 114.29 311.244 122.4ZM265.516 192.134C263.227 161.368 239.846 136.475 209.784 131.866C212.072 162.632 235.453 187.526 265.516 192.134ZM191.132 131.651C188.899 163.032 164.728 188.348 133.868 192.349C136.101 160.968 160.272 135.651 191.132 131.651ZM359.458 131.816C389.707 136.299 413.265 161.306 415.523 192.224C385.739 187.941 362.379 163.772 359.337 133.605C359.383 133.011 359.424 132.414 359.458 131.816ZM283.865 192.387C286.081 160.988 310.26 135.653 341.132 131.651C341.168 132.304 341.212 132.956 341.264 133.605C338.179 164.18 314.226 188.594 283.865 192.387ZM313.171 51.7497C329.099 59.7291 342.139 72.6234 350.3 88.4436C358.461 72.6234 371.5 59.7291 387.429 51.7497C371.5 43.7712 358.461 30.8769 350.3 15.0558C342.139 30.8769 329.099 43.7712 313.171 51.7497ZM340.136 113.012C334.412 86.2827 312.502 65.5557 285.164 61.5876C290.888 88.3176 312.798 109.044 340.136 113.012ZM211.128 112.714C237.495 108.111 258.483 87.8622 264.171 61.8855C237.806 66.4881 216.818 86.7381 211.128 112.714ZM200.45 89.3292C208.577 73.104 221.804 59.8776 238.029 51.7497C221.804 43.6227 208.577 30.3954 200.45 14.1711C192.323 30.3954 179.096 43.6227 162.871 51.7497C179.096 59.8776 192.323 73.104 200.45 89.3292ZM489.516 112.919C483.805 86.4366 462.202 65.8653 435.184 61.6812C440.895 88.1628 462.498 108.735 489.516 112.919ZM414.195 61.7802C387.501 66.1758 366.205 86.5887 360.505 112.82C387.199 108.424 408.495 88.0116 414.195 61.7802ZM189.826 112.967C162.648 108.89 140.891 88.2402 135.174 61.6335C162.352 65.7105 184.109 86.3601 189.826 112.967ZM565.446 41.8695C562.781 11.4243 539.445 -13.0947 509.554 -17.5694C512.219 12.876 535.556 37.3947 565.446 41.8695ZM462.129 -27.45C446.004 -35.5275 432.84 -48.6424 424.7 -64.7313C416.56 -48.6424 403.396 -35.5275 387.271 -27.45C403.396 -19.3724 416.56 -6.25755 424.7 9.8313C432.84 -6.25755 446.004 -19.3725 462.129 -27.45ZM490.757 -17.6992C460.388 -13.5855 436.579 11.1849 433.943 41.9991C464.312 37.8852 488.121 13.1154 490.757 -17.6992ZM191.061 -17.7397C160.533 -13.7485 136.567 11.1039 133.939 42.0396C164.467 38.0481 188.433 13.1964 191.061 -17.7397ZM209.858 -17.5231C212.534 12.7977 235.713 37.2309 265.442 41.8227C262.767 11.5026 239.588 -12.9306 209.858 -17.5231ZM237.271 -27.45C253.396 -19.3725 266.56 -6.25764 274.7 9.8313C282.839 -6.25764 296.004 -19.3725 312.129 -27.45C296.004 -35.5274 282.839 -48.6423 274.7 -64.7311C266.56 -48.6423 253.396 -35.5274 237.271 -27.45ZM359.402 -17.5919C389.38 -13.1754 412.799 11.3964 415.45 41.9145C385.7 37.6026 362.378 13.4475 359.337 -16.6954C359.36 -16.9937 359.382 -17.2926 359.402 -17.5919ZM283.936 42.0783C286.55 11.0823 310.586 -13.8153 341.186 -17.756C341.21 -17.4019 341.236 -17.0484 341.264 -16.6954C338.181 13.8561 314.263 38.2569 283.936 42.0783ZM340.136 -37.2878C312.798 -41.2561 290.888 -61.9828 285.164 -88.7122C312.502 -84.7439 334.412 -64.0173 340.136 -37.2878ZM510.816 -37.5322C537.347 -42.0321 558.489 -62.3638 564.184 -88.4678C537.654 -83.9679 516.511 -63.6362 510.816 -37.5322ZM489.516 -37.3808C483.805 -63.863 462.202 -84.4346 435.184 -88.6191C440.895 -62.1369 462.498 -41.5655 489.516 -37.3808ZM414.195 -88.5198C387.501 -84.1238 366.205 -63.7112 360.505 -37.4802C387.199 -41.8762 408.495 -62.2888 414.195 -88.5198ZM135.174 -88.6664C140.891 -62.0602 162.648 -41.4107 189.826 -37.3336C184.109 -63.9398 162.352 -84.5894 135.174 -88.6664Z" fill="#11A267" stroke="#18D690" stroke-width="8" mask="url(#path-3-inside-1_1378_96194)"/>
<rect x="212" y="-2" width="326" height="266" fill="url(#paint0_linear_1378_96194)"/>
</g>
</g>
<defs>
<linearGradient id="paint0_linear_1378_96194" x1="212" y1="131" x2="538" y2="131" gradientUnits="userSpaceOnUse">
<stop stop-color="#18D690"/>
<stop offset="1" stop-color="#18D690" stop-opacity="0"/>
</linearGradient>
<clipPath id="clip0_1378_96194">
<rect width="485" height="250" rx="8" fill="white"/>
</clipPath>
<clipPath id="clip1_1378_96194">
<rect width="273" height="264" fill="white" transform="translate(212)"/>
</clipPath>
</defs>
</svg>
